<?xml version="1.0" encoding="UTF-8" standalone="no"?>
<!-- Created with Inkscape (http://www.inkscape.org/) -->

<svg
   xmlns:dc="http://purl.org/dc/elements/1.1/"
   xmlns:cc="http://creativecommons.org/ns#"
   xmlns:rdf="http://www.w3.org/1999/02/22-rdf-syntax-ns#"
   xmlns:svg="http://www.w3.org/2000/svg"
   xmlns="http://www.w3.org/2000/svg"
   xmlns:sodipodi="http://sodipodi.sourceforge.net/DTD/sodipodi-0.dtd"
   xmlns:inkscape="http://www.inkscape.org/namespaces/inkscape"
   width="300mm"
   height="300mm"
   viewBox="0 0 300 300"
   version="1.1"
   id="svg43"
   inkscape:version="0.92.4 (5da689c313, 2019-01-14)"
   sodipodi:docname="signatureCaligraphy.svg">
  <defs
     id="defs37" />
  <sodipodi:namedview
     id="base"
     pagecolor="#ffffff"
     bordercolor="#666666"
     borderopacity="1.0"
     inkscape:pageopacity="0.0"
     inkscape:pageshadow="2"
     inkscape:zoom="0.49497475"
     inkscape:cx="896.47918"
     inkscape:cy="600.24036"
     inkscape:document-units="mm"
     inkscape:current-layer="layer1"
     showgrid="false"
     inkscape:window-width="1920"
     inkscape:window-height="1057"
     inkscape:window-x="-8"
     inkscape:window-y="-8"
     inkscape:window-maximized="1" />
  <metadata
     id="metadata40">
    <rdf:RDF>
      <cc:Work
         rdf:about="">
        <dc:format>image/svg+xml</dc:format>
        <dc:type
           rdf:resource="http://purl.org/dc/dcmitype/StillImage" />
        <dc:title></dc:title>
      </cc:Work>
    </rdf:RDF>
  </metadata>
  <g
     inkscape:label="Layer 1"
     inkscape:groupmode="layer"
     id="layer1"
     transform="translate(0,3)">
    <path
       style="stroke-width:2.01830482;stroke-miterlimit:4;stroke-dasharray:none"
       id="path4554"
       d="m 19.386803,252.87918 c 0.437101,-0.20608 0.871469,-0.41808 1.311332,-0.61821 2.267645,-1.03175 1.559309,-0.64393 4.067423,-1.84552 0.901799,-0.43204 3.534733,-1.86284 2.690239,-1.32736 -1.931151,1.22443 -3.943168,2.3187 -5.958235,3.39943 -1.010782,0.54213 1.962203,-1.1883 2.943305,-1.78246 6.926653,-4.32544 12.939069,-9.84643 18.497981,-15.78379 6.376954,-7.37423 11.409829,-15.78552 16.235038,-24.2214 5.847705,-9.90579 11.318303,-20.02222 16.528759,-30.27537 5.606442,-11.50327 9.336228,-23.76896 12.953779,-36.00516 3.862436,-13.10907 6.941393,-26.42205 9.439515,-39.85263 1.719113,-11.209004 3.447181,-22.418624 5.014861,-33.650003 0.89333,-6.436977 1.35408,-12.921597 1.50846,-19.415437 -0.0681,-2.518986 0.17605,-5.071088 -0.0955,-7.582181 -0.12453,-0.240242 -0.19097,-0.628245 -0.60152,-0.499546 -0.21216,0.06649 -0.36376,0.25582 -0.54927,0.378327 -0.25292,0.16702 -1.03076,0.637449 -0.76587,0.490135 8.24275,-4.584175 10.61314,-6.527835 6.96181,-3.676117 -3.41809,3.11752 -5.52528,7.277382 -7.52788,11.374022 -2.668874,6.053626 -4.516774,12.43708 -6.430991,18.760056 -2.180976,7.431482 -4.605234,14.79211 -6.399388,22.32955 -1.542386,6.17998 -2.14989,12.515644 -2.475453,18.858564 -0.187779,5.78292 -0.269771,11.57461 -0.112524,17.35896 0.262521,5.15372 1.72017,10.07961 3.711969,14.80233 1.262835,2.99129 2.895921,5.78389 4.970293,8.27935 1.355444,1.7388 3.348165,2.65051 5.199224,3.74343 1.71257,1.07927 3.53656,1.96401 5.29223,2.96645 1.84931,0.96785 3.94862,1.11525 5.99363,1.23958 3.04639,0.11758 6.09619,0.10269 9.1443,0.0995 4.04367,0.23618 7.68899,-1.36833 11.24633,-3.07965 -2.17416,1.21726 -4.29559,2.53392 -6.52245,3.65179 -0.90621,0.45489 1.71437,-1.08404 2.55034,-1.65785 4.40579,-3.02417 7.58378,-6.22325 11.20819,-10.11286 7.56521,-8.71602 12.84731,-19.04151 17.88195,-29.3421 5.5891,-11.8217 9.70944,-24.277254 13.3149,-36.826494 2.11459,-7.841877 4.02843,-15.733206 5.77649,-23.664024 0.62333,-3.198629 1.1824,-6.384607 2.09084,-9.515477 1.35776,-4.978127 -0.99324,-2.749872 10.21935,-5.963871 0.37714,-0.1081 0.0474,0.783358 0.0588,1.17553 0.0147,0.514068 0.013,1.028479 0.0191,1.542722 0.0472,7.311621 -0.92062,14.561376 -1.93967,21.784182 -1.5309,9.825961 -2.72543,19.698288 -4.07088,29.550278 -1.36677,9.754404 -3.30271,19.437194 -5.53362,29.029494 -2.50811,10.94311 -4.96175,21.89891 -7.57514,32.81832 -2.67141,11.02456 -6.09036,21.8401 -9.71656,32.58123 -3.55179,9.84723 -7.00771,19.72821 -10.58193,29.56735 -2.21987,5.82985 -4.33884,11.71164 -6.85769,17.42275 -1.16385,2.63886 -2.09137,4.39147 -3.37904,6.9335 -2.25579,4.09933 -4.55253,8.30051 -8.10599,11.41918 -8.31845,6.07927 -10.56475,7.08061 -18.82043,7.39518 -4.72414,0.29911 -9.37042,-0.14492 -14.005516,-1.02959 -3.761067,-0.68802 -7.530808,-1.50545 -11.026113,-3.08743 -1.014351,-0.58336 -2.072862,-1.07895 -3.107059,-1.62514 0,0 8.878006,-5.81526 8.878006,-5.81526 v 0 c 1.013029,0.53065 2.032113,1.04933 3.042959,1.58416 3.419479,1.49413 7.060733,2.34614 10.728423,2.99061 4.61948,0.82262 9.25383,1.10316 13.943,0.77725 1.82581,-0.10934 3.66581,-0.1899 5.45153,-0.62795 0.50381,-0.12367 1.91591,-0.75553 1.48424,-0.4679 -2.42415,1.61528 -11.23301,6.618 -6.33041,3.82665 0.45499,-0.33472 0.93757,-0.63481 1.36496,-1.00409 3.06594,-2.64917 5.06467,-6.77821 7.19343,-10.13974 1.31305,-2.48296 2.32908,-4.32242 3.50621,-6.90191 2.59741,-5.69187 4.73992,-11.58349 6.9713,-17.42318 3.61948,-9.84297 7.08266,-19.74196 10.68624,-29.59065 3.65472,-10.70846 7.06988,-21.50046 9.75287,-32.49949 2.65338,-10.89365 5.07159,-21.8403 7.5167,-32.78145 2.2305,-9.55291 4.10995,-19.20821 5.5157,-28.9166 1.33835,-9.858164 2.64993,-19.719774 4.09284,-29.563171 0.25693,-1.903019 1.02675,-7.416604 1.19952,-9.411495 0.34418,-3.973186 0.40976,-7.995655 0.33505,-11.980344 -0.0206,-0.493704 -0.0355,-0.987696 -0.0621,-1.481112 -0.0182,-0.335204 -0.35638,-0.82557 -0.0723,-1.004483 3.05996,-1.927376 6.46407,-3.249627 9.62255,-5.010928 0.10457,-0.0583 -0.21416,-0.255311 -0.30923,-0.182589 -0.43576,0.333297 -0.0542,1.294798 -0.49744,1.568883 -0.37177,1.207567 -0.82274,2.414694 -1.11147,3.645163 -0.46045,1.9624 -0.69168,3.983218 -1.25353,5.92466 -1.89703,8.021456 -4.02435,15.983231 -6.20273,23.932724 -3.69569,12.583358 -7.79374,25.105972 -13.32909,37.015492 -4.95153,10.28515 -10.08353,20.63022 -17.42869,29.45857 -1.95416,2.16967 -3.40179,3.87101 -5.51048,5.86343 -5.61231,5.3028 -12.54243,8.87093 -19.19956,12.64669 -3.7008,1.67851 -7.46724,3.0663 -11.60915,2.78286 -3.08717,0.003 -6.17844,0.0518 -9.26238,-0.11195 -2.17479,-0.18881 -4.361788,-0.48926 -6.28316,-1.60636 -1.772781,-0.98352 -3.565502,-1.92789 -5.295301,-2.98837 -1.958649,-1.14759 -3.971966,-2.22346 -5.352808,-4.09498 -2.075386,-2.62489 -3.775565,-5.48392 -5.02113,-8.59916 -1.987416,-4.86349 -3.423803,-9.92778 -3.772947,-15.19759 -0.19536,-5.8082 -0.101974,-11.62238 0.06823,-17.43057 0.323192,-6.41496 0.940828,-12.82889 2.497389,-19.078514 1.795782,-7.55253 4.244005,-14.9199 6.377572,-22.381026 1.845281,-6.355579 3.717265,-12.741037 6.258831,-18.857312 1.926199,-4.145925 3.93207,-8.351861 7.145367,-11.676303 3.775017,-3.640342 1.343977,-1.458708 11.164887,-6.89376 1.28261,-0.709804 2.54596,0.03693 3.01683,1.275225 0.33149,2.589879 -0.0837,5.236451 -0.048,7.83649 -0.28923,6.587423 -0.80916,13.163818 -1.80063,19.687287 -1.7048,11.28184 -3.53751,22.544459 -5.27413,33.821493 -2.53209,13.44815 -5.55833,26.79318 -9.388611,39.93744 -3.591037,12.26233 -7.266649,24.55719 -12.781028,36.12281 -5.184534,10.24711 -10.585408,20.38451 -16.4217,30.27802 -4.762206,8.46391 -9.737907,16.89266 -15.983069,24.36493 -5.486451,5.98881 -11.432566,11.56346 -18.274506,15.99599 -7.424038,4.5763 -14.899971,9.26061 -23.098615,12.32483 0,0 8.487741,-6.45491 8.487741,-6.45491 z"
       inkscape:connector-curvature="0" />
    <path
       style="stroke-width:2.01830482;stroke-miterlimit:4;stroke-dasharray:none"
       id="path4556"
       d="m 153.99624,43.382641 c 6.91582,0.57206 13.86531,0.609592 20.80041,0.699444 11.70052,0.128827 67.34646,0.138835 79.04751,0.14355 11.02295,0.01085 22.04574,-0.03251 33.06857,-0.08022 5.12392,-0.03497 2.67404,-0.01461 7.34962,-0.05927 l -8.30717,6.035669 v 0 c -4.5642,-0.04367 -2.16788,-0.02385 -7.18894,-0.05746 -10.95244,-0.04477 -21.90478,-0.08274 -32.8573,-0.0738 -11.75966,-0.002 -67.46396,0.01581 -79.22356,-0.02785 -7.12346,-0.05233 -14.25229,-0.05395 -21.36884,-0.405134 l 8.6797,-6.174952 z"
       inkscape:connector-curvature="0"
       sodipodi:nodetypes="ccccccccccccc" />
    <path
       style="stroke-width:2.01830482;stroke-miterlimit:4;stroke-dasharray:none"
       id="path4558"
       d="m 183.55596,143.23323 c 7.07653,0.60446 14.19165,0.62878 21.28897,0.73566 14.4062,0.1688 28.81372,0.17993 43.22069,0.1632 10.40013,-0.034 20.80027,-0.0829 31.19992,-0.19156 0,0 -8.29913,6.02993 -8.29913,6.02993 v 0 c -10.22706,-0.10602 -20.45466,-0.14881 -30.68218,-0.18515 -14.48276,-0.0239 -28.96553,-0.003 -43.44834,-0.009 -7.31958,-0.0182 -14.64874,0.0402 -21.95963,-0.36894 0,0 8.6797,-6.17496 8.6797,-6.17496 z"
       inkscape:connector-curvature="0" />
    <path
       style="stroke-width:2.01830482;stroke-miterlimit:4;stroke-dasharray:none"
       id="path4560"
       d="m 157.79363,250.27893 c 8.3806,0.17676 16.76393,0.19744 25.14605,0.24391 14.08007,0.074 28.16046,0.0606 42.24055,0.007 8.84714,-0.0362 17.69438,-0.0761 26.54115,-0.16739 0.76573,-0.009 1.53149,-0.0178 2.29725,-0.0266 0,0 -8.43941,6.1316 -8.43941,6.1316 v 0 c -0.74139,-0.009 -1.48274,-0.0178 -2.22413,-0.0266 -8.69319,-0.0923 -17.38684,-0.13104 -26.08038,-0.1674 -14.08656,-0.0541 -28.1734,-0.0664 -42.25991,0.007 -8.60595,0.047 -17.21296,0.0701 -25.81749,0.24392 0,0 8.59632,-6.24558 8.59632,-6.24558 z"
       inkscape:connector-curvature="0" />
  </g>
</svg>
