<svg version="1" xmlns="http://www.w3.org/2000/svg" width="6666.667" height="6666.667" viewBox="0 0 5000.000000 5000.000000"><path d="M4895.6 105.8c-.2.1-2.1.5-4.2.8-2.2.2-5.4.9-7.1 1.3-2.4.7-3.3.6-3.3-.2 0-.9-.2-.9-.8-.1-.4.6-1.7 1-2.9.9-1.3-.1-2.3.2-2.3.6 0 .5-1.6.7-3.5.5-1.9-.1-3.5.1-3.5.4 0 .4-1.2.8-2.7.8-1.6.1-4.4.4-6.3.7-1.9.3-4.6.8-6 1-1.4.1-3.8.5-5.5.8-1.6.3-5.5.9-8.5 1.2-3 .4-5.9 1-6.3 1.2-.5.3-3.2.7-6 .9-5.4.4-9.8.9-16.5 1.9-2.2.3-5.9.8-8.3 1-4.4.5-8.4 1.2-8.4 1.5 0 .1-1.6.3-3.5.4-8.8.8-16.6 1.7-18 2.1-.8.2-4.2.7-7.5 1-3.3.3-6.9.7-8 .9-1.1.2-4.9.7-8.5 1.1-3.6.4-7.6.8-9 1-12.9 1.6-19.8 2.4-26.3 3-8.8.9-11.6 1.3-12.7 2-.5.3-1 .1-1-.5s-.4-.9-.8-.6c-1.2.7-6.7 1.7-12.7 2.2-2.7.2-7.5.6-10.5.9-3 .3-8 .8-11 1-3 .2-5.5.5-5.5.6 0 .3-13.3 1.6-23 2.2-2.2.2-4.5.5-5 .8-.6.3-3.1.5-5.7.4-2.7 0-4.8.1-4.8.4 0 .4-1.7.6-3.8.7-4.1.1-10.5.6-35.2 2.9-3 .3-8.4.8-12 1-3.6.3-8.7.8-11.5 1.1-2.7.2-7.9.7-11.5.9-3.6.3-8.7.7-11.5.9-2.7.3-8.4.7-12.5 1.1-4.1.3-10 .8-13 1-11.8 1-30 2.4-38.5 3-3.8.3-9.7.7-13 1-5.6.4-17.9 1.3-30.5 2.1-3 .2-8.6.6-12.5.9-3.8.2-10.6.7-15 1-4.4.3-11.8.8-16.5 1.1-4.7.3-11.5.7-15.1.8-3.7.2-7.2.7-7.9 1.1-.9.6-1.1.4-.5-.4.5-1 .3-1.1-1.1-.4-1.1.5-4.9.9-8.6.9-3.8-.1-6.8.2-6.8.5s-3.3.5-7.4.4c-4.1 0-7.3.2-7.1.5.2.3-2.7.6-6.3.6-3.7.1-11.9.4-18.2.8-6.3.4-15.1.9-19.5 1.1-10.2.6-23.4 1.3-35.5 2-5.2.3-13.9.7-19.2.8-5.4.1-9.8.4-9.8.7 0 .3-3.3.5-7.3.6-6.8.1-23.2.8-44.7 1.9-18.1 1-28.5 1.5-41 2-6.9.2-17.2.7-23 1-16.8.8-40.6 1.8-70.5 3-46.8 1.9-59.5 2.3-79.5 3-8.5.3-16.7.7-18.2.9-1.6.2-2.8-.2-2.8-.8 0-.7-.3-.7-.8-.1-.7 1-15.5 1.7-42.4 1.9-8.2 0-14.8.3-14.8.6s-5.5.6-12.3.7c-30.2.6-45.8 1.1-46.4 1.6-.3.4-1.4.2-2.4-.4-1.1-.5-1.9-.6-1.9-.1 0 1.2-8.4.9-9.2-.3-.5-.6-.8-.6-.8 0 0 1-16 1.7-42.2 1.9-6.5.1-11.8.5-11.8.9s-.8.3-1.9-.2c-1-.6-2.1-.8-2.4-.4-.3.3-8.4.6-18 .8-9.6.1-17.9.5-18.5.9-.6.3-1.3.2-1.6-.3-.4-.5-1.9-.6-3.4-.3-1.5.4-7.9.7-14.2.7-6.5 0-11.8.4-12.2 1-.5.6-.8.5-.8-.3 0-.9-.5-1-1.9-.3-1 .6-2.1.8-2.4.5-.9-.9-5.7-1.2-5.7-.3 0 .4-1 .6-2.2.3-2.3-.5-7.9-.8-8.8-.4-.7.3-28.2.9-54.2 1.2-12 .2-21.8.7-21.8 1.2s-.6.3-1.3-.3c-.8-.6-1.6-.8-2-.5-.4.5-17.7.9-73.7 1.8-6.9.1-13 .5-13.7.9-.6.4-1.4.3-1.7-.2-.3-.5-2-.7-3.8-.4-3.9.4-4.5.4-7.8 0-1.4-.2-3.3 0-4.2.5-1 .5-1.9.4-2.3-.2-.4-.6-1.3-.7-2.3-.1-1.1.6-2.4.6-3.5 0-.9-.6-1.7-.6-1.7-.2 0 .4-10 .9-22.3 1-20.1.1-100.2 1.2-100.2 1.3 0 .1-89.6 1.1-127.1 1.4-18.8.2-34.6.6-35.2 1-.6.3-1.3.3-1.6-.2-.2-.4-2.4-.6-4.8-.5-20.4 1.1-340.9 2.2-344.3 1.2-1.1-.3-2.7-.8-3.5-1.1-6.4-2.2-20.1-4.8-26.7-5.1-2.4-.1-4.3-.4-4.3-.7 0-.3-1.7-.6-3.7-.5-2.1 0-5.7-.2-8-.6-2.4-.3-4.5-.4-4.7-.2-.2.3-4.6.6-9.8.8-5.1.2-11.8.7-14.8 1.1-3 .4-6.3.7-7.2.8-1 0-1.8.4-1.8.9 0 .4-.4.6-.8.3s-2.8 0-5.3.6c-5.9 1.3-6.2 1.4-7.9 2.1-7.6 3-10.3 3.1-316.5 3.1l-306 .1-.1 177.3V553h4c2.3 0 115.3.1 251.3.2l247.1.1.5 2.3c.2 1.3 0 2.1-.4 1.8-.5-.3-.5.5-.1 1.8.5 1.3.8 6 .8 10.5-.1 4.6.1 8.3.4 8.3.3 0 .5 4 .5 9 0 4.9.3 9 .6 9 .7 0 .5 3.2-.4 4.6-.3.6-.3 1.4.1 1.8.4.4.8 2.2.8 3.9.1 1.8.5 10.4.8 19.2.4 8.8.8 19.6 1 24.1.1 4.4.6 8.6 1 9.2.3.6.2 1.3-.4 1.7-.6.4-.7 1.1-.4 1.7.4.6.8 4.8.9 9.3.1 4.5.5 8.7.9 9.3.4.7.3 1.2-.3 1.2-.5 0-.8.8-.6 1.7.2 1 .4 1.8.5 1.8.2 0 .7 10.8 1.1 25.3.1 5.7.6 10.5 1.1 10.8.5.3.5 1 .2 1.6-1 1.5-1.4 5.8-.6 5.8.4 0 .8 5.7.9 12.8.3 23 .9 37.8 1.7 39 .4.7.2 1.2-.5 1.2-.9 0-.9.3 0 1.4.8 1 .9 1.6.1 2.1-.6.3-.7 1.1-.4 1.7.4.6.8 5.5 1 10.7.2 10.6 1.1 36.7 2 59.7.3 8.2.7 21.4.9 29.4.7 22.8 1.4 48.1 2 66 .2 9.1.7 26.6 1 39 .3 12.4.8 30.1 1 39.5.3 9.3.7 27.6 1 40.5.2 12.9.7 33.8 1 46.5 2.6 119.1 3.8 250.5 3.6 409-.1 149.6-.4 183.5-1.4 185.1-.3.6-.3 1.4 0 1.8 1 .9 1 6.7.1 9.3-.4 1.3-.3 2.5.3 2.8.5.4.7 1.4.4 2.3-.2 1-.7 19.9-1 42.2-.8 63.7-2.1 123.7-2.9 135-.3 3-.7 10-1.1 15.5-.3 5.5-.8 12-1 14.5-.5 6-1.7 24.4-2 30-.1 2.5-.5 7.2-.8 10.5-.4 3.3-.9 9.6-1.2 14-.3 4.4-.8 10.7-1.1 14-.3 3.3-.7 8.7-.9 12-.3 3.3-.7 8.5-1 11.5-.3 3-.7 8.2-1 11.5-1.3 15.5-1.5 18.3-1.9 23-.3 2.7-.8 8.1-1.2 12-.4 3.8-.8 8.9-.8 11.2-.1 2.4-.3 4.3-.6 4.3s-.6 3-.8 6.8c-.2 6.6-.9 13.7-1.2 13.7-.1 0-.3 2-.5 4.5-.3 4.9-1.3 15.5-2 21-.2 1.9-.6 6.6-1 10.5-.3 3.8-.8 8.1-1 9.5-.2 1.4-.6 4.7-.9 7.5-.3 2.7-.7 6.8-1 9-.3 2.2-.7 6.7-1.1 10-.3 3.3-1 9.8-1.6 14.5-.6 4.7-1.2 10.3-1.5 12.5-.2 2.2-.6 5.8-.9 8-.2 2.2-.7 6.2-1 9-.6 5.2-1.4 11.3-2 15.5-.2 1.4-.6 5.2-1 8.4-.3 3.3-.8 7.3-1 9-.5 3.4-1.2 8.4-2.1 16.1-.3 2.7-.8 6.1-1 7.5-.3 1.4-.7 4.3-.9 6.5-.3 2.2-.7 5.6-1 7.5-.3 1.9-.7 5.5-1 8-.7 6.2-1.3 10.5-1.5 10.5-.1 0-.3 1.3-.4 3-.2 1.6-.6 4.9-1 7.2-1.2 8.1-1.8 12.8-2.1 15.8-.2 1.6-.4 3-.5 3-.2 0-.7 2.7-1.3 7.5-.3 2.5-1 7.4-1.6 11-.5 3.6-1.3 8.5-1.6 11-.3 2.5-1 7-1.5 10s-1.1 7.1-1.4 9c-.3 1.9-.8 4.6-1 6-.3 1.4-.7 4.3-1 6.5-.3 2.2-.8 5.1-1.1 6.5-.3 1.4-.7 3.8-1 5.5-1.3 10-2 14.4-3 18.5-.3 1.4-.8 4.5-1 7-.2 2.5-.4 4.5-.6 4.5-.1 0-.3.9-.5 2-.1 1.1-.5 3.1-.9 4.5-.3 1.4-.8 4.3-1.1 6.5-.5 4.2-1.1 8-1.4 8-.2 0-.7 2.6-1.4 8-.3 2.7-1 6.7-1.5 8.7-.5 2-.6 3.9-.3 4.2.3.4.1.6-.4.6-.6 0-1 1-1 2.2 0 1.3-.8 6.6-1.8 11.8-1 5.2-2 10.6-2.2 12-.3 1.4-1.4 7.2-2.5 13s-2.2 11.6-2.5 13c-.4 2.5-1.1 5.7-2.1 9.5-.3 1.1-.6 3.6-.8 5.5-.2 1.9-.5 3.7-.6 4-.1.3-.3.9-.4 1.5-.2.5-.4 1.2-.5 1.5-.1.3-.3 1.2-.5 2-.1.8-.8 4-1.4 7.1-1 4.9-1.9 9.3-2.5 12.4-.1.5-.4 1.4-.7 2-.4.5-.5 1.8-.4 2.7.2 1-.1 1.8-.6 1.8-.6 0-.8.3-.5.8.2.4-.5 5-1.6 10.2-1.1 5.2-2 10.1-2.1 10.7 0 .7-.3 1.3-.6 1.3s-.7 1-.7 2.2c-.2 3.1-1.3 8.6-2.4 12.3-.5 1.6-1.4 5.7-2.1 9-.7 3.3-1.4 6.4-1.5 7-3.8 15.8-5.4 22.6-5.9 25.4-.3 1.9-1.1 4.3-1.7 5.5-.6 1.1-1 2.2-.9 2.4.1.1 0 1.5-.3 3-.4 1.5-.8 3.6-1 4.7-.8 3.9-3.8 16-4.3 17.5-.4.8-.5 1.9-.4 2.4.1.4-.3 1.4-.9 2-.5.7-.7 1.6-.4 1.9.3.3.2 1.2-.2 1.9-.5.7-.9 1.7-1 2.3-.1.5-.4 2.2-.7 3.6-.7 3.6-12.6 48-13.4 49.9-.3.8-.7 1.9-.8 2.5-.1.5-.3 1.2-.4 1.5-.2.3-.4 1.2-.6 2-.1.8-.9 3.5-1.6 6-.7 2.5-1.4 4.9-1.4 5.5-.1.5-1.3 4.8-2.7 9.5-1.4 4.7-3.6 11.9-4.8 16-1.2 4.1-2.7 9.1-3.3 11-.6 1.9-1.2 3.7-1.2 4-.5 2.1-4.9 16.2-6 19.2-.8 2.1-1.2 3.8-.9 3.8.4 0-.1 1.1-1 2.5s-1.4 2.5-1.2 2.5c.3 0-.6 3.1-1.9 6.9-1.3 3.8-2.1 7.2-1.7 7.5.3.3 0 .6-.6.6-.7 0-1.1.3-1.1.7.3 1.8-1.4 7.3-2.3 7.3-.5 0-.6.4-.3 1 .3.5.3 1.6-.2 2.2-.4.7-.8 1.7-1 2.3-.2 1.2-3.8 12.1-8.8 26.5-3.7 10.8-5.8 16.1-7.6 19.4-.8 1.4-.8 1.6.3 1 1-.6 1-.4.2.7-.6.8-1.8 3.4-2.7 5.9-.9 2.5-2.2 5.8-2.8 7.5-.7 1.6-1.3 3.4-1.5 4-.5 2.3-14.6 38.1-15.3 39-.5.5-1.1 2.1-1.4 3.5-.7 3.5-5 13.4-6.2 14.2-.5.4-.7.8-.3.8.4 0-.3 2.4-1.6 5.2-2.5 5.7-3.8 9-4.1 9.8-.1.3-.8 1.8-1.5 3.5-9 19.6-13.8 30.9-13.5 31.6.3.4-.2 1-1 1.3-.8.3-1.4.9-1.4 1.3.3 1.5-2.3 7.3-3.2 7.3-.5 0-.8.3-.8.8.1.4 0 1-.1 1.4-.1.5-.3 1.1-.4 1.5-.3 1.4-18.1 36.8-18.7 37.3-.4.3-1 1.6-1.4 3-.4 1.4-1.2 2.8-1.7 3.1-.5.3-1 1.2-1.2 2-.2 1.4-1.1 3.1-4.9 9.9-1.1 1.9-3.3 6-4.9 9-5.4 10.2-13.3 23.5-14 23.8-.5.2-.6.8-.2 1.3.3.5 0 .9-.5.9-.6 0-1.1.9-1.1 2s-.4 2-.8 2c-.5 0-1.5 1.2-2.3 2.7-.8 1.6-2.6 4.7-4.1 6.9-1.6 2.3-2.8 4.4-2.8 4.7 0 .9-6.3 10.1-7.4 10.9-.6.4-.7.8-.3.8.4 0-.3 1.5-1.7 3.3-1.4 1.9-2.3 3.7-1.9 4 .3.4.2.7-.4.7-.6 0-2.2 1.9-3.6 4.2-2.6 4.5-19.6 28.9-20.6 29.8-.4.3-2.4 2.9-4.5 5.9-2.1 3-4.2 5.9-4.7 6.5-.5.6-4.9 6.2-9.8 12.4s-9.9 12.3-10.9 13.5c-1.7 1.8-8.1 9.1-13.8 15.7-3.3 3.8-32.3 33-32.8 33-.3 0-2.3 1.7-4.4 3.7-2.1 2.1-7.2 6.5-11.3 9.8-4.1 3.2-8.2 6.7-9.2 7.7s-2.1 1.8-2.5 1.8c-.4 0-2 1.1-3.6 2.5-4.6 3.9-27.7 19-28.7 18.7-.5-.1-.9.2-.9.7 0 1-33.7 18.1-35.6 18.1-.6 0-2.5.7-4.3 1.6-1.8.9-4.3 1.7-5.7 1.8-1.3 0-2.4.4-2.4.8 0 .5-.8.8-1.8.8s-2.2.3-2.6.7c-.3.4-1.2.8-1.9.9-.7.2-2.5.6-4.1.9-1.6.3-3.7 1-4.8 1.6-1 .5-1.8.7-1.8.5 0-.3-1.1-.1-2.4.4-1.3.5-4.4 1.1-6.7 1.5-2.4.3-5.1.8-5.9 1-9.6 2.7-43.9 3.9-59 2.2-14.2-1.7-23.4-3.1-26.8-4.1-.9-.3-2.8-.7-4.2-1-5.7-1.2-15.3-3.7-16.4-4.3-.6-.4-1.7-.8-2.6-.9-4.3-.7-16.4-4.7-16.8-5.6-.2-.5-1-.8-1.9-.8-1.6 0-13.5-4.7-23.3-9.2-3.6-1.7-7.6-3.5-9-4-1.4-.6-3.2-1.4-4-1.9-.8-.5-4.2-2.3-7.5-4-10.2-5.2-19.5-10.5-20.7-11.7-.7-.7-1.7-1.2-2.3-1.2-.6 0-2.9-1.3-5.1-3-2.1-1.6-4.2-3-4.6-3-1.1 0-22.3-14.2-22.6-15.1-.2-.5-1-.9-1.8-.9s-1.4-.5-1.4-1c0-.6-.4-1-1-1-1 0-15.9-11.1-27.5-20.4-10.8-8.7-17.1-13.9-22.1-18.3-21.9-19.4-27.7-24.8-45.5-42.8-15.4-15.6-22.2-22.7-31.2-32.9-3.4-3.8-6.7-7.4-7.2-8-.6-.6-3.7-4.2-7-8.1-3.3-3.8-6.6-7.6-7.2-8.3-.7-.7-1.3-1.8-1.3-2.4 0-.6-.3-.8-.6-.5-.4.3-2-1.2-3.6-3.4-2.9-4.1-6.7-8.6-10-12.1-1-1-1.8-2.1-1.8-2.4 0-.3-.6-1.1-1.2-1.8-.7-.7-2.5-2.8-4-4.7-1.4-1.9-3.5-4.4-4.5-5.6-1-1.2-2.7-3.4-3.8-4.9-1.1-1.5-2.6-3.3-3.2-4-.7-.7-1.3-1.5-1.3-1.8 0-.6-1.4-2.5-6.2-8.1-1.6-1.8-2.8-3.5-2.8-3.9 0-.3-.8-1.4-1.8-2.4-2.6-2.9-5.2-6.2-5.2-6.8 0-.5-1.4-2.3-4.2-5.5-1-1-1.5-1.9-1.2-1.9.4 0-.9-1.9-2.8-4.3-3.3-4.1-8.9-12-17.2-24.2-2.3-3.3-4.3-6.2-4.6-6.5-.7-.7-8-11.8-16.9-25.5-9.1-14.1-8.7-13.4-11.5-17.6-1.3-2.1-2.7-4.6-3.1-5.8-.3-1.2-1.1-2.1-1.6-2.1-.6 0-1.5-1.2-2.2-2.8-.7-1.5-2.5-4.6-4-6.9-1.5-2.4-2.7-4.7-2.7-5.2s-.4-1.1-.8-1.3c-1-.4-7.2-10.5-7.2-11.8 0-.6-.4-1-1-1-.5 0-1-.5-1-1.1 0-.6-.8-2.3-1.9-3.7-1-1.5-3.1-5-4.5-7.7-3.2-5.9-4.2-7.5-7.8-13.1-1.5-2.3-2.4-4.4-2.1-4.8.4-.3.2-.6-.4-.6-.6 0-1.7-1.5-2.4-3.3-.7-1.7-1.9-3.8-2.6-4.5-.7-.8-1.1-1.8-.8-2.3.4-.5.2-.9-.3-.9s-1.5-1.2-2.3-2.7c-3-5.9-16.2-29.9-17-30.9-.5-.6-.6-1.4-.2-1.7.3-.4.1-.7-.5-.7-.7 0-1.2-.9-1.2-1.9 0-1.1-.4-2.1-.8-2.3-.5-.2-2.2-3-3.9-6.3-14.7-28.9-19.5-38-20.6-39.4-1-1.2-.9-1.3.1-.7 1.1.7 1.1.4 0-1.3-.7-1.2-1.6-2.1-2-2.1-.5 0-.8-.9-.8-1.9 0-1.1-.7-2.6-1.5-3.5-.8-.8-1.5-1.9-1.5-2.4 0-.6-3.7-8.6-8.2-17.9-4.6-9.2-8.3-17-8.3-17.3-.2-.6-6-13.1-8.9-19-1.3-2.5-2.4-5-2.5-5.5-.2-.6-1.4-3.5-2.8-6.5s-4.3-9.6-6.4-14.5c-2.2-5-4.6-10.2-5.5-11.7-.8-1.5-1.4-3-1.4-3.3.1-.5-1.1-3.4-4.7-11.3-1-2-1.6-4-1.5-4.5.1-.4-.2-.7-.8-.7-.5 0-.7-.7-.4-1.5.4-.8.1-1.5-.5-1.5s-1.1-.6-1.1-1.4c0-1.2-1.2-4.1-6-15.1-.5-1.1-2.6-6.1-4.5-11-2-5-4.3-10.4-5.1-12.2-.8-1.7-1.4-3.6-1.4-4.2 0-.6-.4-1.1-1-1.1-.5 0-.7-.6-.4-1.4.3-.8.1-1.7-.5-2.1-.6-.3-1.1-1.5-1.1-2.6 0-1-.5-1.9-1.1-1.9-.5 0-.8-.4-.5-.8.2-.4-.1-2.1-.8-3.7-.8-1.7-2.1-5-3.1-7.5s-2.3-5.9-3-7.5c-.7-1.7-1.8-4.6-2.5-6.5-.7-1.9-1.8-4.9-2.5-6.5-.7-1.7-2.5-6.6-4.1-11-1.5-4.4-3.1-8.4-3.6-9-.4-.5-.8-1.4-.8-2.1 0-.6-.7-2.8-1.5-4.8s-1.5-3.7-1.4-3.8c0-.2-.8-2.6-2-5.4-1.1-2.9-1.7-5.5-1.4-5.8.4-.3.1-.6-.5-.6-.7 0-1.2-.9-1.2-1.9 0-1.1-.4-2.3-1-2.6-.5-.3-1-1.5-1-2.6 0-1-.4-2.7-1-3.7-.9-1.6-7.6-20.8-13.7-39.2-1.3-4.1-2.7-8.2-3-9-.4-.8-.7-1.8-.8-2.3-.2-.4-.4-.9-.5-1.2-.1-.3-.4-1-.5-1.5-.1-.6-.4-1.3-.5-1.8-.1-.4-.2-1-.1-1.5 0-.4-.3-.7-.9-.7-.6 0-.9-.3-.8-.8.3-.9-2.3-10.4-3.2-11.7-.4-.6-1.1-2.6-1.5-4.5-.4-1.9-1.3-4.9-2-6.5-1.1-2.6-7.4-22.2-8.1-25-.2-.8-5.3-17.7-7.8-26-.2-.6-.4-1.3-.5-1.8 0-.4-.7-2.2-1.5-4.1-.8-1.9-1.2-3.7-.8-4 .3-.3.1-.6-.5-.6s-1-.6-1-1.3c.2-2.5-1.6-8.7-2.5-8.7-.5 0-.7-.4-.4-.9.4-.5.1-2.2-.5-3.8-.6-1.5-1.2-3.6-1.4-4.6-.4-1.6-2.6-9.5-7.1-24.5-1.1-3.4-1.4-6.6-.9-9 .4-2 .9-4.8 1.1-6.2.2-1.4.7-3.6 1-5 .3-1.4.8-3.6 1-5 .3-1.4.7-3.4.8-4.5 1.7-9.1 4-21.3 5.2-27.5.8-4.1 1.8-9.3 2-11.5.3-2.2.9-5.6 1.4-7.5.5-1.9 1.1-5.3 1.5-7.5.3-2.3.8-5.2 1.1-6.5.3-1.4.7-3.4.8-4.5.2-1.1.6-3.8 1-6 .3-2.3.9-5.2 1.2-6.5.9-4.4 1.7-10.4 1.7-12.7-.1-1.3.2-2.1.6-1.9.4.3.7-.3.8-1.2.1-.9.2-3.2.4-5 .1-1.8.6-3.5 1.1-3.8.4-.3.6-.9.3-1.4-.3-.4 0-3.2.6-6.1.6-3 1.2-6.8 1.4-8.4.8-5.4 2-12.6 3-17.5.3-1.4.7-4.3 1-6.5.4-2.2 1-6.5 1.5-9.5s1.2-7.2 1.6-9.4c.3-2.1.7-4.6.9-5.5.1-.9.6-3.6 1-6.1.3-2.5.9-5.9 1.2-7.5.2-1.7.6-4.1.8-5.5.2-1.4.6-4 .9-5.8.8-4.6 1.4-8.1 2.1-12.7.3-2.3.7-5 .9-6.1.6-2.8 1.8-12.2 2.2-15.9.1-1.7.3-3 .4-3 .2 0 .7-3.1 1.4-7.7.2-1.5.7-3.2 1.2-3.9.5-.8.3-.9-.6-.4-.9.6-1.1.4-.5-.5.9-1.4 1.8-6.7 1.9-11.3.1-1.5.3-2.7.6-2.7s.6-1.2.7-2.8c.2-3.1 1.1-9.7 1.3-9.7.1 0 .4-2.1 1.5-10.7 1.1-9 1.3-10.2 1.8-13.3.3-1.7.8-5.5 1.2-8.5.4-3 .8-6.6 1-8 .2-1.4.6-4.5 1-7 .3-2.5.8-5.6 1-7 .7-3.8 1.5-10.2 2.1-15.6.2-2.7.9-7.5 1.4-10.8.5-3.2.9-6.1.8-6.5 0-.3.1-.8.2-1.1.1-.3.4-2.3.5-4.5.2-2.2.4-4 .5-4 .1 0 .4-1.6.6-3.5 1-10.4 1.6-14.8 2.3-17.1.5-1.4.5-3.3-.1-4.2-.5-.9-.5-1.7-.1-1.7.9 0 1.6-4.5 1.7-10.7 0-1.7.3-3 .6-2.8.4.2.6-1.5.7-3.8 0-4.8.9-10.6 1.7-11.4.3-.3.1-1.4-.5-2.4-.5-1.1-.6-1.9-.1-1.9s.9-.6.9-1.3c0-.6.4-4.1.8-7.7 1-9.6 1.3-12.1 1.6-16.8.2-2.3.5-4.2.8-4.2.4 0 .7-2.1.8-4.8.2-8.3.8-14.2 1.3-14.2.3 0 .5-1.9.6-4.3 0-2.3.4-6.9.8-10.2.4-3.3.9-8 1.2-10.5.2-2.5.6-6.3.9-8.5.2-2.2.7-6.9 1-10.5.3-3.6.8-7.6 1-9 .2-1.4.7-5.9 1-10 .3-4.1.8-8.9 1-10.5.2-1.7.7-6.6 1-11 .4-4.4.9-9.4 1.1-11 .2-1.7.6-5.9.9-9.5.3-3.6.7-8.8 1-11.5.9-9.6 1.6-18 1.9-23.2.2-2.8.7-5.6 1-6.2.4-.6.2-1.1-.4-1.1-.6 0-.8-.5-.4-1.2.8-1.2 1.6-9.1 1.8-17.6.1-2.3.3-4.2.6-4.2s.6-2.1.6-4.8c.3-6.6 1.2-21.7 1.4-21.7.2 0 .5-4.5 1.4-19 .5-7.7.9-13.9 2.1-29 .3-3.9.7-10.8.9-15.5.3-4.7.5-8.5.6-8.5 0 0 .3-3.8.5-8.5s.7-12.8 1-18c.8-12.3 1.3-21.6 2-37 .3-6.9.8-15.4 1-19 .3-5.9 1.1-24 2-47 .4-8.1 1.1-30.7 2-56.5 2.9-87.8 2.4-240.6-1-328.5-1.6-40-1.8-45.1-3.1-71.5-.4-7.7-.8-17.5-.8-21.7-.1-4.3-.3-7.8-.6-7.8s-.6-1.7-.6-3.8c-.2-5.4-1.3-25.7-1.4-25.7-.2 0-1.1-15.1-1.4-22-.1-3.3-.5-6.6-1-7.3-.4-.7-.2-1.2.4-1.2.7 0 .8-.5.3-1.3-.4-.6-.9-3.9-1-7.2-.1-3.3-.2-6-.3-6-.1 0-.3-2.7-.5-6-.4-5.7-1-13.7-2.1-27-.3-3.3-.7-8.3-.9-11-.2-2.8-.6-7.3-.9-10-.7-6.7-1.7-19.1-2.1-24-.1-2.2-.4-4-.5-4 0 0-.3-2.9-.5-6.5s-.7-8.3-1-10.5c-.3-2.2-.8-6.7-1.1-10-1.4-15.3-3.3-34.2-3.9-38-.3-1.7-.7-5.5-1-8.5-.3-3-.7-7.1-.9-9-.3-1.9-.7-6-1.1-9-.3-3-.8-6.6-1-8-.2-1.4-.6-5-1-8-1.1-10.1-1.7-13.5-2.1-14.2-.3-.5 0-.8.7-.8.8 0 .8-.4.1-1.3-.5-.6-1.3-4.4-1.7-8.2-1-10.1-1.3-12-1.5-12-.3 0-1-6.6-1.3-11.7-.1-2.7-.4-4.8-.8-4.8-.3 0-.6-1.8-.7-3.9-.3-3.9-.7-7.3-1.8-13.4-.3-1.7-.6-4.3-.7-5.7-.1-1.4-.5-3-.8-3.5-.3-.6-.5-2.7-.4-4.8 0-2-.3-3.7-.6-3.7s-.5-1.1-.4-2.5c.2-1.4 0-2.5-.4-2.5-.5 0-.7-1.2-.6-2.8 0-1.5-.5-6.1-1.2-10.2s-1.5-9.3-1.8-11.5c-.4-3.7-.7-5.7-2-12.5-.3-1.4-.7-4.8-1.1-7.5-.3-2.8-.8-5.2-.9-5.5-.2-.3-.6-2.6-1-5-.3-2.5-1.3-8.6-2.2-13.5-.8-5-1.7-10.4-1.9-12-.3-1.7-.6-3.7-.8-4.5-.3-1.6-1.3-7-2.1-11-.2-1.4-.7-3.9-1-5.5-.3-1.7-.7-4.4-1-6-.3-1.7-.8-4.1-1.1-5.5-.8-4-1.4-7.3-1.8-10.5-.2-1.7-.5-3.1-.6-3.3-.3-.3-.5-1-1.4-6.5-.4-2.7-1-5.9-1.2-7-.3-1.2-.7-3.3-1-4.7-1.2-6-3.5-17-4.9-23.5-.9-3.9-1.8-8.4-2-10.1-.2-1.7-1.1-5.8-1.9-9-.8-3.2-1.8-7.4-2.1-9.1-.4-2.8-2.3-11.3-4.2-18.8-.2-1.1-.6-3-.8-4.2-.2-1.1-.7-3.2-1.1-4.5-.4-1.2-.9-3.1-1-4.1-.1-.9-.3-1.9-.4-2.2-.1-.3-.3-.8-.4-1.3-1.1-4.4-2.5-10.4-3.3-14.2-.3-1.4-1.1-3.1-1.7-3.9-.8-1.1-.8-1.3.1-.8.9.6.8-.3-.2-2.8-.9-1.9-1.5-3.8-1.5-4.2 0-.5-.6-2.6-1.2-4.8-.6-2.2-1.1-4.7-1.2-5.5-.1-.8-.8-3.5-1.5-6s-1.4-5-1.6-5.5c-.8-3.9-2.1-8.3-4.7-17.5-1.7-5.8-3.1-11-3.2-11.5-.6-3.2-3.8-13.3-4.6-14.7-.6-1-1-2.5-1-3.3 0-3.8-18.2-57-24-70-1-2.2-2.4-5.7-3.1-7.8-.7-2-1.7-3.7-2.2-3.7-.4 0-.6-.4-.3-.8.8-1.4-19.6-41.3-21.6-42-.4-.2-.8-1-.8-1.8s-.4-1.4-1-1.4c-.5 0-1-.6-1-1.3 0-.6-1.1-2.6-2.4-4.2-1.4-1.7-4.8-6.2-7.7-10-2.8-3.9-7.1-8.9-9.4-11.2-2.4-2.3-4-4.5-3.7-4.8.3-.3 0-.5-.6-.5s-3.7-2.7-6.9-6.1c-5-5.2-17.2-14.8-18.1-14.1-.1.1-1.5-.9-3-2.3s-3.5-2.8-4.4-3.1c-1-.3-1.8-1-1.8-1.5s-.7-.9-1.5-.9-1.5-.5-1.5-1c0-.6-.6-1-1.3-1-.7 0-2.2-.8-3.3-1.8-3.6-3.1-5.7-4.3-14.9-8.2-3.6-1.6-7.2-3.1-8.5-3.5-.3-.1-1.6-.6-3-1.2-7.3-3.2-12.9-5.2-15.6-5.7-1.6-.2-4-.7-5.4-1-1.4-.4-4.3-.9-6.5-1.2-5.1-.7-7.4-1.2-10.5-1.9-1.4-.3-3.8-.8-5.5-1.2-7.7-1.7-54.7.5-56.9 2.7-.5.5-2 1-3.3 1-1.3 0-2.3.4-2.3 1 0 .5-.5 1-1.1 1-.5 0-3.5 1.1-6.5 2.5s-5.6 2.5-5.8 2.5c-.2 0-2.5 1-5.2 2.2-2.7 1.2-5.1 2.3-5.4 2.3-.3.1-2.2.9-4.4 1.8-2.1.9-4 1.7-4.2 1.7-.2 0-2.7 1.1-5.6 2.4-9.3 4.1-11.3 4.9-12.7 5.2-.8.1-1.7.8-2.1 1.4-.4.7-1.1 1.1-1.6 1.1-1.6-.2-10.4 3.3-10.4 4.1 0 .4-.3.7-.8.6-.4-.2-2.7.6-5.2 1.6-2.5 1.1-4.7 2-5 2.1-1.5.5-4.6 1.8-18.2 7.8-3.1 1.4-5.8 2.3-6.1 2.1-.2-.3-1 .2-1.7 1.1-.7.8-1.8 1.5-2.5 1.5-.6 0-2.6.7-4.3 1.6-1.7.8-4.1 1.6-5.2 1.7-2.3.2-3 1.9-4.5 11.2-.2 1.6-.9 4.7-1.4 6.7-.5 2.1-.6 3.8-.3 3.8s.1.5-.5 1.1c-.6.6-.9 1.8-.6 2.5.3.8 0 2.1-.7 2.9-1 1.2-1 1.5.1 1.5 1 0 1 .3.3.8-.7.4-1.4 2.5-1.8 4.7-1.1 7.5-2.3 14-2.6 14-.1 0-.3.9-.5 2s-.6 4-1 6.5c-.5 2.5-.8 5.1-.8 5.7 0 .7-.4 1.3-.8 1.3s-.7 1-.6 2.2c0 1.3-.3 3.6-.6 5.3-.4 1.6-.9 4.3-1.3 6-.3 1.6-1.6 8.5-3 15.3-1.3 6.8-2.6 13.8-2.9 15.5-.3 1.8-.8 3.9-1 4.7-.2.8-.6 2.6-.9 4-.2 1.4-1.6 8.6-3.1 16s-2.9 14.8-3.1 16.5c-.5 2.9-1 6.6-1.8 11.5-.3 1.4-.5 2.5-.6 2.5-.2 0-1 3.5-1.5 7-1.2 8-1.6 10.1-2 11.5-.4 1.7-1.6 8.3-2 12-.2 1.4-.4 2.5-.5 2.5-.3 0-1.1 3.9-1.5 8-.3 2.2-.7 5.1-1 6.5-.3 1.4-.7 3.8-1 5.5-.3 1.6-.7 4.3-1 6-.3 1.6-1.7 9.5-3 17.5-1.4 8-2.7 15.6-3 17-.2 1.3-.7 4-1 6-.3 2-.8 4.7-1 6-.3 1.4-.8 4.5-1.1 7-.6 4.4-1 6.8-1.8 11.2-.2 1.3-.7 4.1-1 6.3-.3 2.2-.8 5.1-1.1 6.5-.3 1.4-.8 4.3-1.1 6.5-.2 2.2-.7 5.3-1 7-.6 3.2-1.3 8.2-1.8 13-.2 1.6-.5 3-.6 3-.1 0-.4 1.3-.5 3-.2 1.6-.6 4.6-1 6.5-.3 1.9-.8 4.8-1 6.5-.3 3.1-1.3 9.2-2.1 13.5-.2 1.4-.7 4.5-1 7-.2 2.5-.7 5.6-.9 7-.3 1.4-.7 4.5-1 7-.3 2.5-.8 5.5-1 6.7-.3 1.2-.7 4.1-1 6.5-.3 2.4-1 7.7-1.6 11.8-.6 4.1-1.2 8.6-1.4 10-.2 1.4-.6 4.3-.9 6.5-.4 2.2-.9 5.8-1.1 8-.2 2.2-.7 5.6-1 7.5-.3 1.9-.8 5.7-1 8.5-.3 2.7-1 7.9-1.5 11.5-1.3 9.2-1.8 12.9-2.5 18-.3 2.5-.8 6.5-1.2 9-.3 2.5-.7 6.3-.8 8.5-.2 2.2-.4 4-.5 4-.1 0-.3 1.1-.5 2.5-.4 4.1-1.5 14.2-2.2 19-.3 2.5-.7 6.1-.8 8-.2 1.9-.4 3.5-.5 3.5-.1 0-.3 1.8-.5 4-.1 2.2-.5 5.8-.9 8s-.9 7.1-1.2 11c-.3 3.8-1 7.6-1.6 8.2-.7.9-.7 1.3.1 1.3.7 0 1 .3.8.7-.3.5-.8 3.5-1.1 6.8-.4 3.3-.9 7.1-1.1 8.5-.2 1.4-.7 5.6-1 9.5-.4 3.8-.8 8.1-1 9.5-.2 1.4-.6 5.9-1 10s-.8 8.6-1 10c-.2 1.4-.6 5.9-1 10s-.9 8.8-1.1 10.5c-.6 5.4-1.5 15.9-1.9 22-.2 3.3-.5 6-.6 6-.1 0-.3 1.3-.4 3-.4 5.7-1.7 20-2 23-.2 1.6-.7 6.6-1 11-.3 4.4-.8 11.1-1.2 15-.3 3.8-.6 8.5-.7 10.2 0 1.8-.4 3.3-.9 3.3s-.4.6.2 1.3c.6.8.8 1.7.4 2-.3.4-.8 3.9-1 7.9-.7 12.6-.8 13.3-1.6 14.5-.5.7-.4 1.3.1 1.3s.9.7.9 1.5-.3 1.5-.6 1.5-.7 2.1-.7 4.8c-.3 11-1.1 19.8-1.7 20.9-.4.6-.3 1.4.3 1.8.6.4.7 1.1.4 1.7-.4.5-.8 3.8-1 7.2-.1 3.3-.3 6.1-.4 6.1-.1 0-.3 3.4-.5 7.5s-.4 7.5-.5 7.5c0 0-.3 4-.6 9-.2 4.9-.6 11.7-.8 15.1-.1 3.3-.6 6.6-1 7.2-.4.7-.2 1.2.4 1.2.6 0 .8.5.5 1-.6 1-1.2 11.2-1.7 28.2-.2 4.9-.5 8.8-.8 8.8-.3 0-.5 4.2-.6 9.3 0 5-.4 15.7-.7 23.7-1 20.8-1.6 35.9-2.2 57.5-.4 10.4-.8 24.2-1 30.5-2.1 62-2 196.3 0 265.5 1.4 45.9 2.6 76.9 3 77.4.3.2 0 1.2-.5 2.2-.6 1-.6 2-.2 2.3.4.2.9 3.8 1 7.8.4 12.1 1.2 23.9 1.7 24.8.3.5.1 1.1-.5 1.5-.6.4-.7 1.1-.4 1.7.4.6.9 4.5 1.1 8.7.5 12.8 1.3 28.3 1.8 35.1.2 3.6.6 10 .9 14.2.2 4.3.7 8.2 1.1 8.8.3.5.1 1-.5 1-.8 0-.7.6.1 2.1.8 1.6.8 2.3-.1 2.9-.9.6-.9.9 0 1.5.6.4 1.1 1.9 1 3.3-.1 1.5-.1 2.9 0 3.2.1.3.2 3.7.4 7.5.1 3.9.6 7.6 1 8.3.4.7.2 1.2-.6 1.2s-.9.3-.3.8c.6.4 1.1 3.4 1.2 6.7.5 10.8.9 15.5 1.6 16.1.3.4.2 1.4-.3 2.4s-.6 2-.2 2.4c.3.4.8 3 .9 5.9.4 7.3 1.1 16.2 1.3 16.2.1 0 .4 4.3.6 9.5.3 5.2.7 10.2 1 11 .4.8.8 4.6 1 8.5.7 11.5.9 12.9 1.7 14.2.5.8.4 1.3-.3 1.3-.6 0-.9.4-.6.8.3.5.8 3.7 1.1 7.3.3 3.5.8 8.2 1 10.4.2 2.2.7 6.9 1 10.5.3 3.6.8 8.3 1.1 10.5.3 2.2.7 5.8.9 8 .2 2.2.6 6.5.9 9.5.4 3 .9 8 1.2 11 .3 3 .7 7.1 1 9 .3 1.9.7 6.2 1 9.5.3 3.3.7 7.1.9 8.5.3 1.4.7 5 1 8 .3 3 .8 7.5 1.1 10 .4 2.5.8 5.8.9 7.5.1 1.6.6 5.2 1 8 .4 2.7.9 6.6 1.1 8.5.1 1.9.4 3.5.4 3.5.1 0 .4 2 .6 4.5.4 5.2 1.1 10.8 1.9 15.9.4 2 .9 5.8 1.2 8.6.8 7.9 1.1 10 1.3 10 .1 0 .4 1.8.5 4 .2 2.2.4 4 .5 4 .2 0 .5 2.4 1.4 11 .3 3.3.8 7 1.1 8.2.4 1.9 1 5.5 2 13.3.5 4 2.4 17 3.5 24 .5 3.6 1.2 8.3 1.5 10.5.3 2.2.8 5.6 1.1 7.5.8 4.6 1 6.1 2.4 15 .6 4.1 1.4 8.6 1.6 10 .2 1.4.6 4.1.9 6 .3 1.9.7 4.6 1 6 .3 1.4.7 4.3 1 6.5.3 2.2.8 5.1 1.1 6.5.3 1.4.7 4.1 1 6 .2 1.9.7 4.8 1.1 6.5.4 1.6.7 3.4.8 4 .1.5.3 1.2.4 1.5.1.3.4 2.1.6 4 .2 1.9.6 5 .9 6.7 1.2 6.6 1.7 9.9 2.3 13.8.3 2.2 1 4.6 1.7 5.4.9 1.2.8 1.3-.2.7-1.1-.7-1.2-.4-.4 1 .5 1.1 1.2 3.9 1.6 6.4 1.1 8.1 1.6 11.5 2.2 14 .3 1.4.8 3.6 1 5 .3 1.4 1.8 9.5 3.4 18 1.6 8.5 3.2 16.6 3.4 18 .5 2.7 4.5 22.4 5.1 25.1.2.9.6 3.2.9 5 .3 1.9.8 4.5 1.1 5.9.4 1.4.8 3.4 1 4.5.2 1.1.6 3.1.9 4.5.3 1.4.8 3.8 1.1 5.5.2 1.6.9 4.7 1.4 6.7.5 2.1.7 3.8.5 3.8-.3 0 0 .8.5 1.8s1.2 3.8 1.5 6.3c.3 2.5.7 5.2 1 6 .3.7.7 2.5 1 3.9.2 1.4 2.3 10.8 4.6 21 6.2 27.3 7.1 31.3 7.5 34 .2 1.4.5 2.7.6 3 .1.3.3.9.4 1.5.2.5.4 1.2.5 1.5.2.7.8 2.9 1.4 6 .3 1.4.9 3.6 1.2 5 .3 1.4.7 3.4.8 4.6.1 1.1.5 2.4.8 3 .3.5.9 3 1.3 5.6.4 2.7 1 4.8 1.4 4.8.4 0 .8 1 .8 2.2.1 2.2 1 6.3 1.3 6.3.1 0 .3 1.1.5 2.5.6 3.2 1.3 6.5 1.5 6.5.2 0 .4 1.2 1.3 5.5.3 1.4.8 3.2 1.1 4 .3.8.8 2.6 1 4 .3 1.4 1.2 5.4 2.1 9l2 8c.2.8.8 2.7 1.4 4.2.6 1.6.8 2.8.6 2.8-.2 0 0 1.2.6 2.7.7 1.9.7 4.1 0 7.3-.6 2.5-1.3 5.7-1.5 7.3-.3 1.5-.7 3.5-1 4.5-.3.9-.7 2.8-1 4.2-.2 1.4-1.4 7-2.6 12.5-1.1 5.5-2.3 11.1-2.5 12.5-.3 1.4-.9 4-1.4 5.9-.6 1.8-1 3.6-.9 4 0 .3-.1.9-.2 1.3-.3 1-.4 1.5-1.3 5.8-.4 1.9-1 4.6-1.3 6-1.2 5.7-1.6 7.6-1.9 9.5-.5 2.7-1.3 6-1.5 6-.1 0-.4 1.1-.7 2.5-.2 1.4-.6 3.2-.8 4-.2.8-.7 3.6-1.1 6.2-.3 2.7-1 4.8-1.3 4.8-.4 0-.7.8-.8 1.7-.2 3.4-3 16.1-11 50.3-.3 1.4-.6 3.4-.7 4.5 0 1.1-.4 2.2-.8 2.5-.4.3-.9 2.3-1.2 4.5-.2 2.2-.5 4.1-.7 4.2-.1.2-.3.7-.4 1.3-.1.5-.3 1.1-.5 1.2-.2.3-.8 2.9-1.5 6.8-.3 1.4-1.2 5.4-2.1 9-.9 3.6-1.7 7.2-1.9 8-.2.8-.4 1.5-.5 1.5-.1 0-.3.9-.5 2s-.6 3.1-1 4.5c-.3 1.4-.8 3.6-1.1 5-.3 1.4-1.4 6.1-2.6 10.5-1.1 4.4-2.2 9.1-2.4 10.5-.3 1.4-.8 3.4-1.1 4.5-.4 1.1-.8 2.4-.9 3-.1.5-3.2 12.9-6.9 27.5s-6.9 27.4-7 28.5c-.2 1.1-.4 2-.5 2-.1 0-.3.7-.5 1.5s-1.3 5.1-2.5 9.5c-1.1 4.4-2.3 9.1-2.6 10.5-.3 1.4-.8 3.4-1.1 4.5-.4 1.1-.8 2.4-.9 3-.2.5-1 3.5-1.8 6.7-.8 3.1-1.8 6.7-2.1 8-.3 1.2-1.8 7.2-3.5 13.2-1.6 6-2.7 11.3-2.4 11.8.3.4.1.8-.5.8-.5 0-1.4 2.3-2 5.2-.6 2.8-2.8 10.8-4.8 17.7-1.9 6.9-3.6 13.6-3.6 14.8-.1 1.3-.4 2.3-.7 2.3-.4 0-.7.6-.8 1.2-.1 1.5-1 5.3-1.2 5.3-.1 0-.3 1.1-.6 2.5-.2 1.4-.9 3.6-1.4 5-1.2 3.3-7.3 25.1-7.5 27 0 .9-.4 2-.7 2.6-.4.6-.9 2.1-1.2 3.5-.2 1.3-.9 3.5-1.4 4.9-.5 1.4-1 2.8-1.1 3.2 0 .5-.1.9-.2 1-.2.7-.9 3.5-1.3 5.3-.2 1.1-.5 2-.6 2-.1 0-.3.9-.5 1.9-.2 1-1 4-1.8 6.5-1.8 5.3-4 13.5-3.8 13.9.1.1-.5 1.8-1.3 3.7-.9 2-1.5 3.9-1.6 4.3-.2 1.9-4 15.1-10.3 35.7-1.1 3.8-2.2 7.6-2.4 8.2-.2.7-.5 2.1-.7 3-.3 1-.5 1.9-.6 2-.2.2-.4.7-.5 1.3-.1.5-.3 1.1-.4 1.2-.2.2-.4 1.3-.7 2.5-.2 1.2-1.1 4.1-1.9 6.5-.9 2.4-1.8 5.4-2.1 6.7-.3 1.3-.9 3.2-1.5 4.3-.5 1-.7 1.8-.5 1.8.3 0 .1 1.2-.5 2.7-.6 1.6-1.2 3.5-1.4 4.3-.2.8-1.2 4.2-2.3 7.5-2.9 9-8.4 26.8-8.7 28.5-.2.8-.4 1.6-.5 1.7-.2.2-.4.7-.5 1.3-.1.5-.3 1.1-.5 1.2-.1.2-.3 1-.5 1.8s-1 3.5-1.9 5.9c-.9 2.4-1.3 4.7-1 5.2.3.5.1.9-.4.9-.9 0-2.8 6.5-2.4 8.3.1.4-.2.7-.6.7-.5 0-.9.6-1 1.2 0 .7-.3 2-.5 2.8-.2.8-.7 2.8-1.2 4.5-.4 1.6-1 3.4-1.4 4-.3.5-.6 1.2-.6 1.5-.2 1.3-7.8 24.9-9.2 28.5-.9 2.2-1.7 4.7-1.8 5.5-.1.8-.5 2.2-.8 3-2.3 6.4-4.4 13.9-3.9 14.4.3.3 0 .6-.6.6-.7 0-1.2.6-1.2 1.4 0 1.3-22.2 69.1-24 73.1-.5 1.1-1.4 3.8-2.1 6-.6 2.2-1.5 4.4-1.9 5-.4.5-.6 1.8-.5 2.7.2 1 0 1.8-.4 1.8s-1.3 2.1-2 4.7c-.8 2.7-1.7 5.7-2.1 6.8-.4 1.1-.8 2.3-.9 2.8 0 .4-.8 2.1-1.6 3.7s-1.5 3.2-1.5 3.5c0 .3 0 .6-.1.7 0 .2-.2 1-.4 1.8-.5 2.3-5.5 16.3-6.4 18-.5.9-1.2 3.1-1.6 5-.4 1.9-1.1 4-1.6 4.6-.5.6-1.1 2.1-1.3 3.5-.3 1.3-.5 2.5-.7 2.6-.1.2-.2.6-.3 1-.1.5-.4 1.2-.7 1.8-.5.8-3 7.6-3.4 9.5-.1.3-.7 1.8-1.3 3.3-.7 1.6-1.2 3.1-1.2 3.5 0 .4-1.4 4.3-3.1 8.7-1.6 4.4-3.2 8.7-3.4 9.5-.6 2.4-5.5 16.2-7 19.5-.7 1.6-3.1 8.4-5.4 15-2.3 6.6-4.6 12.9-5.1 14-.7 1.8-2.1 5.2-2.5 6.5-.1.3-.5 1.7-.9 3.2-.5 1.6-1.2 2.8-1.8 2.8-.5 0-.7.4-.3.9.3.5-1.2 5.4-3.3 10.8-2.2 5.4-4.5 11.6-5.2 13.8-.7 2.2-1.7 4.6-2.3 5.2-.5.7-.6 1.3-.2 1.3.4 0 .2.6-.4 1.3-.6.8-1.2 2.2-1.4 3.3-.2 1-1 3.2-1.6 4.9-.7 1.6-1.4 3.4-1.5 4-.3 1-1.4 4-3.9 10-.6 1.6-1.2 3.3-1.3 3.7-.1.5-.3 1-.4 1.3-.1.3-.3.8-.5 1.2-.1.5-.8 2.1-1.5 3.8-.7 1.6-1.4 3.2-1.4 3.5-.1.3-.5 1.1-.9 1.7-.5.7-.6 1.3-.2 1.3.3 0 0 1-.7 2.2-.6 1.3-1.3 2.7-1.4 3.3-.1.5-2.1 5.7-4.4 11.5-2.3 5.8-4.3 10.9-4.4 11.5-.2.5-.7 1.9-1.1 3-5.6 14-7.5 19.1-7.5 20.1 0 .6-.7 1.7-1.5 2.4s-1.3 1.6-1 2c.4.7-1.1 4.8-4.5 12.5-.5 1.1-2.3 5.6-3.9 10-1.7 4.4-3.6 9.3-4.2 11-.7 1.6-1.3 3.2-1.4 3.5 0 .3-1.1 2.7-2.3 5.4-1.2 2.7-2.2 5.3-2.2 5.7 0 .5-.4 1.7-.9 2.7-2.3 4.3-6 14.2-5.3 14.2.4 0 .2.4-.3.8-.6.4-3.7 7.4-6.9 15.7-3.3 8.2-6.3 15.5-6.7 16.1-.5.6-1 1.9-1.2 3-.2 1-1.1 3.7-2.1 5.9s-2.3 5.3-3.1 7c-.7 1.6-3.7 8.8-6.5 16-2.9 7.1-5.8 14.4-6.5 16-4.3 9.6-5.3 12.4-4.8 12.9.4.3.1.6-.5.6-.7 0-1.2.5-1.2 1.1 0 .5-.8 2.9-1.8 5.2-4.4 10.2-5.7 13.2-5.8 13.7 0 .3-.5 1.6-1.1 3-.6 1.4-1.1 2.7-1.1 3 0 .3-1.2 2.8-2.6 5.6-1.4 2.9-2.6 5.5-2.6 5.9 0 .3-1.1 3.1-2.5 6.1-1.4 3-2.5 5.6-2.5 5.8 0 .2-1.2 3-2.7 6.2-1.5 3.3-2.8 6.1-2.9 6.4 0 .3-.7 2.1-1.5 4-.7 1.9-1.2 3.8-1.1 4.3.1.4-.2.7-.7.7-.5 0-1.5 1.7-2.2 3.8-.7 2-2.6 6.6-4.2 10.2-1.7 3.6-3.1 6.7-3.1 7-.2.7-7.2 17.1-10.2 23.8-1.3 2.9-2.4 5.7-2.4 6.1 0 .5-.4 1.1-1 1.3-.5.2-1.1 1.2-1.3 2.3-.2 1.1-1.5 4.5-2.9 7.5-3.4 7.4-4.1 9.4-4 10.2.1.5-.3.8-.8.8-.6 0-1 .6-1 1.4 0 .8-1.7 5.2-3.8 9.8-2.2 4.6-5.6 12-7.7 16.6-2.1 4.5-3.8 8.9-3.8 9.7 0 .8-.4 1.5-.8 1.5-.8 0-3.3 6-3 7.3 0 .4-.6 1-1.4 1.3-.8.3-1.3 1-1 1.4.3.5-1.6 5.2-4.1 10.7-2.5 5.4-5.2 11.1-5.9 12.8-.7 1.6-3.5 7.5-6.1 13-2.6 5.5-4.7 10.6-4.7 11.2 0 .7-.4 1.3-.9 1.3-.4 0-.8.9-.8 1.9 0 1.1-.3 2.1-.8 2.3-.4.2-2.9 5.2-5.6 11.3-4.6 10.3-9.6 21.1-17.7 38-1.8 3.8-3.4 7.2-3.4 7.5-.2.6-3.8 8.4-13.2 27.7-4 8.3-7.3 15.6-7.3 16.2 0 .6-.5 1.1-1.2 1.1-.6 0-.9.3-.5.6.3.4-.6 3-2 5.8-1.5 2.8-2.6 5.4-2.5 5.8.1.3-.5 1.2-1.3 1.8-.8.7-1.5 1.8-1.5 2.4 0 .6-3.5 8.1-7.7 16.6-4.2 8.5-7.6 15.8-7.5 16.3.1.4-.3.7-.8.7s-.9.3-.8.7c.1.5-3.1 7.5-7.2 15.8-4.1 8.2-7.4 15.2-7.5 15.5-.3 1.3-6.6 13.4-7.6 14.6-.6.7-.8 1.7-.5 2.3.3.5-.1 1.2-.9 1.5-.8.3-1.4.9-1.4 1.3.3 1.2-5.3 12.7-6.3 13.1-.4.2-.8 1.2-.8 2.2 0 .9-.7 2.3-1.5 3-.8.6-1.4 1.5-1.3 1.8.3.8-14.3 30.4-15.2 31.2-.4.3-1 1.4-1.5 2.5-.4 1.1-.9 2.2-1 2.5-.2.3-.6 1.5-1 2.8-.4 1.2-1.2 2.2-1.8 2.2-.6 0-.7.3-.4.6.4.4-.3 2-1.4 3.5-1.1 1.6-1.7 2.9-1.3 2.9.3 0 .2.6-.4 1.3-.6.7-6 10.9-12 22.7-21.8 42.9-24.7 48.5-25.2 49-.3.3-1.8 3.2-3.4 6.5-1.6 3.3-3.4 6.3-4 6.7-.6.4-.7.8-.3.8.5 0 0 1.5-1.1 3.2-2.3 3.8-13.1 24.1-19.4 36.8-2.4 4.7-4.5 8.7-4.9 9-.3.3-2.6 4.5-5.1 9.5-2.6 4.9-5.8 11-7.2 13.5-2.3 4.3-5 9.3-12.1 22.5-10.9 20.3-12.9 24.1-13.8 24.6-.5.3-.7.8-.6 1 .5.6-8.2 16.3-9.5 17.1-.6.4-.8.8-.4.8s-.6 2.6-2.4 5.7c-1.7 3.2-4.5 8.3-6.1 11.3-1.6 3-3.6 6.2-4.3 7.1-.8.8-1.4 2.3-1.4 3.2 0 .9-.4 1.7-1 1.7-.5 0-1 .6-1 1.3 0 .7-1.1 2.9-2.5 5-1.4 2-2.2 3.7-1.8 3.7.4 0 .3.4-.2.8-.6.4-2.3 3.2-3.9 6.2s-3.4 5.8-4 6.2c-.6.4-.7.8-.2.8.5 0 .4.6-.2 1.3-1.4 1.7-7 11.6-8.7 15.4-.8 1.7-1.9 3.5-2.5 3.8-.6.4-.8 1.1-.5 1.6.4.5.2.9-.3.9s-1.5 1.5-2.3 3.2c-.7 1.8-1.6 3.5-1.9 3.8-.4.3-1.3 1.8-2.2 3.5-.8 1.6-5.8 10.6-11.1 19.8-5.3 9.3-9.7 17.2-9.7 17.6 0 .4-.9 1.7-2 2.9-1.2 1.2-1.8 2.2-1.6 2.2.3 0-2.3 4.9-5.8 10.8-3.4 6-6.6 11.5-6.9 12.3-.4.8-1.5 2.7-2.6 4.4-1 1.6-6.4 11.1-12.1 21-5.6 9.9-11 19.1-11.9 20.5-1 1.4-2.8 4.5-4.2 7-1.3 2.5-2.6 4.7-2.9 5-.3.3-1.6 2.5-2.9 5-1.4 2.5-2.7 4.7-3 5-.4.3-1.9 3-3.5 6s-3.2 5.7-3.5 6c-.6.5-2.3 3.4-4.5 7.5-.6 1.1-4.2 7.3-8.1 13.8-3.8 6.5-7.9 13.3-9 15.2-1.1 1.9-4.6 7.7-7.7 12.9-3.2 5.2-5.8 9.9-5.8 10.4s-.7 1.3-1.6 1.6c-.9.3-1.4 1.3-1.1 2 .3.8 0 1.6-.6 1.9-.7.3-2.4 2.7-3.7 5.3-1.4 2.7-2.7 5.1-3 5.4-1.6 1.4-5.1 8.5-4.3 8.8.4.1 4 2.3 7.8 4.7 3.9 2.5 8.8 5.4 11 6.6 2.2 1.2 4.2 2.5 4.5 3 .3.5 2.1 1.5 4 2.4 1.9.8 8.2 4.5 13.9 8 5.7 3.6 10.7 6.5 11.2 6.5s.9.4.9.9.8 1.1 1.8 1.4c1.7.6 7.2 3.7 8.2 4.7.9.9 11.1 7 11.7 7 .3 0 2.1 1.1 3.9 2.5 1.8 1.4 3.7 2.5 4.3 2.5.5 0 1.6.6 2.3 1.2 1.3 1.2 2.4 1.9 8.1 5 1.2.7 2.4 1.5 2.7 1.8 1 1 4.6 3.1 7.2 4.3 1.6.6 2.8 1.5 2.8 1.9 0 .4.7.8 1.5.8s1.5.4 1.5 1c0 .5.3.9.8.8.7-.2 1.8.4 10.2 5.7 1.9 1.3 6.8 4.2 10.8 6.6 4.1 2.4 9 5.4 11 6.7 2 1.3 4.5 2.5 5.5 2.9.9.3 1.7.9 1.7 1.3s.8 1 1.8 1.3c1.7.6 7.2 3.7 8.2 4.7.9.9 11.1 7 11.7 7 .3 0 2 1.1 3.7 2.4 1.7 1.2 4.7 3.1 6.6 4.1 1.9 1 3.7 2.1 4 2.4.3.4 2 1.3 3.8 2 1.7.8 3.2 1.7 3.2 2.2 0 .5.4.9.9.9.6 0 5.2 2.6 10.3 5.8 5.1 3.2 10 6.1 10.8 6.5.8.4 3.5 2 6 3.6s8.6 5.3 13.5 8.2c5 2.9 12 7.2 15.8 9.6 3.7 2.4 7.2 4.3 7.7 4.3.6 0 1 .4 1 .9s1.1 1.2 2.5 1.5c1.4.4 2.5 1.1 2.5 1.7 0 .6.5.7 1 .4.6-.3 1-.1 1 .4 0 .6.7 1.1 1.5 1.1s1.5.4 1.5 1c0 .5.4 1 1 1 .9 0 11 5.8 12 6.9.3.4 2.5 1.7 5 3 2.5 1.4 6.7 3.9 9.5 5.8 5.8 3.9 5.9 3.9 8.5 1.3 1.1-1.1 1.8-2 1.5-2-.3 0 .8-2 2.5-4.5s2.7-4.5 2.3-4.5c-.4 0-.3-.4.2-.8 1.1-.8 1-.6 8.6-13.7 2.9-5 5.9-9.6 6.6-10.3.7-.7 1.3-1.7 1.3-2.2 0-.4 1.2-2.6 2.6-4.8 1.5-2.2 2.7-4.4 2.7-4.9.1-.4.9-1.7 1.9-2.7 1-1.1 1.8-2.6 1.8-3.3 0-.7.5-1.3 1-1.3.6 0 1-.4 1-.9 0-.7 3.9-7.6 10.7-18.9 1.3-2 3.2-5.6 4.5-8 1.2-2.3 2.5-4.2 3-4.2.4 0 .8-.9.8-2s.4-2 .9-2 1.4-1.4 2.1-3.1c.7-1.7 1.8-3.6 2.4-4.3 1.2-1.3 3.6-5.3 6.2-10.6 1-1.9 2.1-3.7 2.5-4 .3-.3 1.8-2.8 3.3-5.5 1.5-2.8 3.2-5.9 3.9-6.9.7-1.1 2.7-4.5 4.6-7.5 1.9-3.1 3.3-5.6 3.1-5.6-.4 0 .8-2 4.6-8 1-1.7 2.5-4.1 3.2-5.4 2.7-5.2 11.7-20.6 12.2-21.1.3-.3 1.2-1.9 2-3.5.8-1.7 2.8-5.3 4.4-8 3.9-6.8 6.5-11.3 8.8-15.5 1.1-1.9 3-5.3 4.4-7.5 1.3-2.2 3.1-5.4 3.9-7 .9-1.7 2.1-3.9 2.8-5 4.9-8.1 17.7-31.5 17.7-32.4 0-.6.4-1.1.8-1.1.5 0 1.9-2.2 3.2-5 1.3-2.7 2.7-5 3.2-5 .4 0 .8-.5.8-1.2 0-1.3 15.9-30.3 19.2-35.1 1.1-1.5 1.7-2.7 1.4-2.7-.4 0 .4-1.7 1.7-3.8 1.3-2 6.1-10.7 10.7-19.2s9.2-16.7 10.2-18.2c1.1-1.6 1.6-3.2 1.3-3.8-.3-.5-.3-1 .2-1 .9 0 2.2-2.2 9.6-16 2.8-5.2 6.3-11.8 7.8-14.5 1.5-2.8 4.5-8.4 6.6-12.5 2.1-4.1 4.4-8.1 5.1-8.8.6-.7 1.2-2.2 1.2-3.2s.4-2 .9-2.2c.7-.3 7.7-13.1 17-31.3 2-3.9 3.9-7.2 4.4-7.3.4-.2.7-1.1.7-2.1 0-.9 1-2.8 2.3-4.1 1.2-1.4 2.1-2.7 2-3-.2-.5 3.8-9.1 4.7-10 .5-.5 2.2-3.8 13.2-25.5 3.9-7.7 7.5-14.1 8-14.3.4-.2.8-.8.8-1.4 0-1.6 3.3-8.2 4.4-9 .6-.4.7-.8.2-.8-.5 0-.4-.6.2-1.3.5-.6 4.9-8.9 9.7-18.2 4.7-9.4 9-17.4 9.6-17.9.5-.6.9-1.5.9-2.2 0-.6 1.8-4.4 4-8.4s4-7.9 4-8.6c0-.8.5-1.4 1-1.4.6 0 1-.9 1-1.9 0-1.1.3-2.1.8-2.3 1.1-.5 28.7-56.1 28.6-57.6-.1-.6.2-1.2.6-1.2.6 0 6.6-11.3 7.5-14 .1-.3 3.4-7.1 7.3-15.2 4-8.1 7.2-15.1 7.2-15.7 0-.6.4-1.1.8-1.1.8 0 3.6-6 3.3-7.3 0-.4.4-.7.9-.7.6 0 1-.5 1-1.1 0-.6 3.3-7.9 7.4-16.3 11.8-24.1 19.3-39.9 20-42.4.4-1.2 1.2-2.2 1.7-2.2s.8-.3.7-.8c-.4-1.4 1.4-5.2 2.4-5.2.6 0 .9-.3.5-.6-.3-.4.1-2.1 1-3.8 1-1.7 1.8-3.3 1.8-3.6.1-.3 1.8-4.1 4-8.5 2.1-4.4 3.9-8.2 4-8.5.1-.5 4-8.6 10.5-22.5 10.7-22.5 13-27.7 13.3-28.7.1-.7.8-1.9 1.5-2.6.6-.7 1.2-2 1.2-2.8 0-1.6 2-5.6 3.3-6.5.5-.3.8-1 .7-1.5-.2-1.2 4.2-10.7 5.3-11.5.5-.3.8-.9.6-1.3-.2-.7 11.1-26.1 18.8-42.3 1.9-4 3.6-7.9 3.7-8.7.1-.8.7-2 1.4-2.8.6-.8.9-1.8.5-2.1-.3-.4-.1-.7.5-.7.7 0 1.1-.3 1-.8-.1-.8.5-2.5 5-12.2 4.3-9.6 7.2-16.1 8.7-19.5.7-1.7 2.7-5.9 4.3-9.5 1.6-3.6 3.5-8.2 4.2-10.2.8-2.1 1.8-3.8 2.4-3.8.5 0 .6-.3.3-.6-.3-.4-.1-1.6.5-2.8.7-1.1 1.3-2.3 1.3-2.6.1-.3 1.3-3.1 2.8-6.4 1.5-3.2 2.7-6 2.7-6.1 0-.1.8-2 1.7-4.1.9-2.2 1.7-4.1 1.8-4.4.1-.3 1.1-2.6 2.3-5.3 1.2-2.6 2.1-5 2.1-5.2 0-.3.7-1.8 1.5-3.3 1.6-2.8 5.6-12 6-13.7.2-.6 1-2.7 2-4.7.9-2.1 1.6-4.2 1.6-4.7s.3-1.1.8-1.3c.4-.2 2.2-4.1 4.1-8.8 1.9-4.7 5-11.7 6.8-15.6 1.8-4 3.3-7.7 3.3-8.3 0-.7.7-2.3 1.6-3.6.9-1.4 1.3-2.5.9-2.5-.5 0 0-.9.9-1.9 1-1.1 1.5-2.5 1.1-3-.3-.6-.1-1.1.4-1.1.6 0 1-.3.9-.7-.1-.5.8-3 2-5.7s2.2-5 2.2-5.1c0-.1.7-1.9 1.5-3.9s1.5-3.8 1.6-4.1c0-.2 1.5-3.9 3.4-8 1.9-4.2 3.5-8.3 3.5-9.1 0-.7.5-1.4 1-1.4.6 0 1-.6 1-1.4 0-.7.8-3.1 1.7-5.2.9-2.2 1.7-4.2 1.7-4.6.1-.3.4-1 .9-1.4.4-.4.7-1.6.7-2.6s.3-1.8.8-1.8c.7 0 2.7-5 3.7-9.4.2-1.1 1-2.3 1.7-2.8.7-.4.9-.8.5-.8s-.2-1 .5-2.3c.6-1.2 1.3-2.7 1.4-3.2.2-.6 3.3-8.2 6.9-17 3.6-8.8 7.1-17.1 7.6-18.5.6-1.4 1.2-3.3 1.5-4.4.2-1 .8-2.3 1.3-3 .5-.6.9-1.3.9-1.6.1-.3.6-1.9 1.3-3.5.7-1.7 1.3-3.5 1.5-4.2.1-.7.9-2.7 1.8-4.4.9-1.8 1.6-3.8 1.6-4.6 0-.7.5-1.3 1.1-1.3.5 0 .8-.4.5-.8-.2-.4.2-2.3 1.1-4.2 2.6-5.9 3.1-7.2 6.6-16.5 4.5-11.8 4.9-12.9 4.7-13.4-.1-.2.2-.7.7-1 .4-.3 1.4-2.4 2.2-4.6.7-2.2 1.9-5.4 2.6-7 .8-1.7 3.9-9.8 7.1-18 3.1-8.3 7.5-19.5 9.6-25 2.2-5.5 4.4-11.4 5-13 .5-1.7 1.6-4.4 2.4-6.2.8-1.7 1.4-3.7 1.4-4.5 0-.8.4-1.8.9-2.4.7-.7 3.1-7.1 3.6-9.4.1-.3.8-2.1 1.7-4 .8-1.9 2.1-5.3 2.8-7.5.7-2.2 1.6-4.5 2-5 .5-.6.9-1.5 1-2 .4-1.7 1.1-3.7 5.2-14.5 2.2-5.8 4.1-11 4.2-11.5.2-.6.8-2.3 1.4-3.8.7-1.6 1.2-3.2 1.2-3.7 0-.4.7-2 1.4-3.6.8-1.5 1.3-3.1 1-3.6-.3-.4 0-.8.5-.8.6 0 1-.3.9-.8-.1-.4.4-2 1.1-3.6.6-1.6 1.3-3.6 1.5-4.5.2-.9.9-3 1.5-4.6.7-1.7 1.4-3.5 1.5-4 .2-.6.7-2.1 1.3-3.5.6-1.4 2.5-6.6 4.2-11.5 1.8-5 3.7-9.9 4.2-11 .5-1.1 1.1-3 1.4-4.2.2-1.2.9-3.1 1.5-4.2.6-1.2.8-2.1.5-2.1-.3 0 .1-1 1-2.3.8-1.3 1.2-2.7.8-3-.3-.4-.2-.7.3-.7s1-.8 1.1-1.7c.1-1 1-3.6 1.9-5.8 1-2.2 1.7-4.4 1.6-4.8-.1-.4.3-1.8 1-3s1.3-2.7 1.4-3.2c.1-.6 4.1-12 8.9-25.5 4.8-13.5 8.8-25.2 9-26 .2-.8.4-1.5.5-1.5.1 0 .3-.9.5-1.9.2-1 .7-2.2 1.2-2.5.4-.3.8-1.1.9-1.6.2-3.1 1.8-7.5 2.6-7.5.5 0 .6-.5.3-1-.3-.6-.3-1.6.2-2.3.4-.6.8-1.7 1-2.2.1-.6 3.7-11.5 8.1-24.3 4.4-12.7 7.7-23.2 7.3-23.2-.3 0-.1-.4.4-.8.9-.6 4.6-11 4.6-12.7 0-.2.6-2 1.5-4 .8-1.9 1.5-3.8 1.5-4.2.1-.5.5-1.8 1-3.1s.9-2.9.9-3.6c0-.7.3-1.6.7-2 .4-.3.8-1.2.9-1.9.3-1.4 13.1-40.5 14-42.7.6-1.4 1.2-4 1.6-6.8.1-.6.6-1.2 1.1-1.2.5 0 .7-.7.3-1.5-.3-.8 0-1.5.6-1.5s.9-.3.6-.6c-.3-.3.3-3.1 1.4-6.2 1.1-3.1 2.1-6.4 2.3-7.2.2-.8 2.9-9.4 6.1-19 3.1-9.6 5.8-18.2 5.9-19 .2-.8.4-1.5.5-1.5.1 0 .3-.7.5-1.5s1-3.4 1.9-5.8c.8-2.3 1.3-4.2.9-4.2-.3 0 0-.7.7-1.5.6-.8.9-1.8.6-2.4-.3-.5-.2-1.1.4-1.3.5-.1 1.1-1.5 1.2-3.1.1-1.5.7-2.7 1.2-2.7s.7-.3.3-.6c-.3-.4 0-2.3.8-4.3 1.9-5.2 5.8-18.4 5.8-19.9 0-.6.3-1.2.7-1.2.4 0 .7-.6.7-1.3 0-.6 2.2-8.1 4.8-16.6 2.6-8.5 4.8-15.9 4.9-16.5.1-.6.5-1.6.8-2.2.4-.6.9-2.1 1.2-3.5.2-1.3 1.1-4.6 2-7.3.8-2.7 1.3-5.3 1-5.8-.3-.4-.1-.8.4-.8s1.3-1.5 1.7-3.3c.4-1.7.9-3.7 1.1-4.2.7-2.3 1.6-6.1 1.6-7.3.1-.6.4-1.2.8-1.2.3 0 .6-1 .7-2.2.1-1.1.6-2.4 1-2.7.4-.3.9-1.7.9-3.1.1-1.4 1.1-5.2 2.1-8.4l2-5.9 2.4 4.4c1.4 2.4 5.1 9.8 8.4 16.4 3.2 6.6 6.3 12.3 6.8 12.6.5.4.7 1.1.3 1.7-.3.6-.2 1.2.3 1.4.4.1 4.5 7.5 9.1 16.3 9.5 18.3 10.3 19.8 11 20.5.3.3 1.2 1.8 2 3.5 1.4 2.7 11.6 21.4 17 31 1.2 2.2 3.2 5.8 4.3 8 1.2 2.2 2.4 4.2 2.8 4.5.3.3 1.3 2.1 2.3 4 2.7 5.5 5 9.3 6.4 10.8.6.7 1.2 1.7 1.2 2.1 0 .5 2.9 5.7 6.5 11.6 3.6 5.9 6.5 11.1 6.5 11.6s.5.9 1 .9c.6 0 1 .4 1 .9 0 .4 2.5 4.8 5.5 9.7 3.1 4.9 5.8 9.7 6.1 10.7.4.9 1 1.7 1.4 1.7.4 0 1 .8 1.4 1.7.3 1 2.4 4.5 4.6 7.8 2.2 3.3 4.3 6.8 4.6 7.7.4 1 1 1.8 1.5 1.8s.9.4.9 1c0 .9 14.7 24 17 26.7.5.7 1 1.7 1 2.3 0 .5.5 1 1 1 .6 0 1 .7 1 1.5s.5 1.5 1 1.5c.6 0 1 .6 1 1.4 0 .8.3 1.6.8 1.8.4.1 4.9 6.6 10.1 14.3 5.2 7.7 9.8 14.1 10.3 14.3.4.2.8 1 .8 1.8s.4 1.4.8 1.4c.5 0 1.5 1.2 2.3 2.7.8 1.6 1.7 3.2 2.2 3.8 6.3 8.4 13.7 18.9 13.7 19.5 0 .5.3 1 .8 1.2.7.3 6.4 7.6 9.2 11.9.8 1.2 2.2 3 3.1 3.9.9 1 1.8 2.1 2 2.6.4 1 14.8 20.3 16.4 22 .6.6 2.4 2.8 4 4.9 1.7 2.1 7.7 9.6 13.5 16.8 5.8 7.1 11 13.7 11.5 14.6.6.8 1.5 2 2.1 2.6.5.5 5 5.7 10 11.5 4.9 5.8 9.7 11.4 10.7 12.5 1 1.1 3.3 3.9 5 6.2 1.8 2.3 3.8 4.3 4.5 4.3.6 0 1.2.4 1.2 1 0 .5 1.7 2.8 3.8 5.1 5.9 6.6 14.1 15.6 22.2 24.3 11 11.9 52.2 52.8 62.4 62.1 4.9 4.4 10.4 9.4 12.3 11.2 2 1.8 5.5 4.9 8 7 2.4 2.1 6.2 5.5 8.5 7.6 2.2 2 4.2 3.7 4.4 3.7.3 0 1.5 1 2.8 2.2 2.3 2.2 8.2 7.2 13.4 11.3 1.4 1.1 3.7 3 4.9 4.2 1.3 1.3 2.6 2.3 2.8 2.3.3 0 5.1 3.7 10.8 8.3 5.7 4.5 11.4 9 12.8 10 11.9 8.7 17.7 13 19.2 14.2.9.8 2.1 1.5 2.7 1.5.5 0 1.3.6 1.7 1.2.4.7 1.6 1.7 2.5 2.3 1 .5 7.7 5 15 10 7.3 4.9 13.6 8.9 14.1 8.7.4-.1.7.2.7.7 0 .5 2.1 2.2 4.8 3.7 2.6 1.5 4.9 3 5.2 3.4.3.4 1.5 1 2.8 1.4 1.2.4 2.2 1.2 2.2 1.7s.4.9.9.9 3.9 1.8 7.6 4.1c3.7 2.2 8.2 4.9 10 5.9 1.8 1 4.3 2.4 5.6 3.2 1.3.7 2.6 1.6 2.9 1.9.3.3 2 1.1 3.7 1.8 1.8.8 3.3 1.7 3.3 2.2 0 .5.9.9 1.9.9 1.1 0 2.1.3 2.3.8.2.4 2.8 2 5.8 3.6 16.4 8.5 26 13.3 26 12.9 0-.2.7.3 1.6 1.1.8.9 2 1.4 2.5 1.1.5-.4.9-.1.9.5s.5.8 1 .5c.5-.3 1-.2 1 .2 0 .5 2.2 1.7 5 2.8 2.8 1.1 5 2.2 5 2.6 0 .3.6.6 1.3.6.6.1 7.1 2.7 14.2 5.8 7.2 3.1 14.4 6.2 16 6.9 1.7.7 5.5 2.2 8.5 3.4 3 1.1 6.4 2.4 7.5 2.8 1.1.4 2.2.8 2.5.9.3.1 1.3.5 2.2.9.9.4 2.2.9 3 1 1.9.4 5 1.6 7 2.7 1 .5 2.7.9 3.8.9 1.1 0 2 .5 2 1.2 0 .6.3.9.6.5.4-.3 2.3 0 4.3.8 5.9 2.3 29.8 9.4 33.1 9.9.9.1 2 .5 2.6.8.6.4 2.1.9 3.5 1.2 4.3.9 6.3 1.4 10.4 2.5 2.2.6 5.1 1.2 6.5 1.5 1.4.2 2.5.5 2.5.6 0 .2 3.7 1 6.3 1.2 1.2.1 2.2.5 2.2.9s.8.6 1.7.5c1-.2 3.2.1 4.8.6 1.7.5 4.6 1.1 6.5 1.4 1.9.2 4.6.7 6 1 3.5.8 6 1.3 10 1.8 1.9.3 4.6.7 6 1 1.4.2 6.6.9 11.5 1.6 5 .6 10.4 1.3 12 1.5 1.7.2 5.9.7 9.5 1 3.6.4 7.6.8 8.9 1 13.6 2.2 77.9 2.2 94.6.1 1.7-.2 6.5-.7 10.8-1.1 4.3-.3 8.6-.8 9.5-.9.9-.2 4.4-.7 7.7-1.1 3.2-.4 6.6-.8 7.5-1 .8-.1 3.7-.6 6.3-.9 2.7-.4 5.9-.9 7-1.2 1.2-.2 3.8-.7 5.7-1 1.9-.3 4.9-.8 6.5-1.1 1.7-.3 3.7-.6 4.5-.7.8-.2 2.6-.6 4-1.1 1.4-.5 3.4-.9 4.5-1 1.1-.1 2.7-.4 3.5-.7 1.7-.7 6.2-1.7 10-2.2 1.4-.2 2.5-.5 2.5-.6 0-.1.7-.3 1.5-.5.8-.1 4-1 7-1.8s9-2.5 13.2-3.6c4.3-1.2 10.2-2.9 13-4 2.9-1 7.1-2.3 9.3-3 4.6-1.5 19.8-6.9 23.5-8.4 1.4-.6 2.7-1.1 3-1.1 2.1-.5 10.9-4.3 12.8-5.4 1.2-.8 2.2-1.2 2.2-.9 0 .3 2.7-.8 6-2.4 3.3-1.6 6.2-2.9 6.5-2.9.2 0 4.3-1.9 9.2-4.2 4.8-2.4 9.3-4.3 9.8-4.3.6 0 1.2-.3 1.5-.6.8-1 11.4-6.3 12.3-6.1.4.1.7-.2.7-.8 0-.5.5-1 1.1-1 .7 0 8.9-4.4 18.3-9.7 9.4-5.4 17.5-10 18.1-10.2.5-.2 1.2-.7 1.5-1.1.3-.3 3.4-2.4 7-4.5 3.6-2.2 7-4.3 7.5-4.7.6-.4 4.7-3.2 9.1-6.2 4.5-3 10-6.7 12.2-8.3 2.2-1.5 5-3.5 6.2-4.3 1.3-.8 3.2-2.3 4.2-3.3 1-.9 1.9-1.6 2.1-1.5.1.2.9-.3 1.7-1 .8-.7 6.6-5.1 12.8-9.9 6.1-4.7 11.2-8.9 11.2-9.4s.6-.9 1.3-.9c.6 0 3.3-1.9 5.9-4.3 2.6-2.3 6.1-5.3 7.9-6.7 1.7-1.4 3.9-3.3 4.8-4.3.8-.9 2.1-1.7 2.8-1.7.6 0 1.5-.9 1.8-2.1.4-1.1.9-1.8 1.2-1.5.3.2 1.5-.6 2.8-2 1.2-1.3 2.8-2.4 3.5-2.4.7 0 1.1-.3.7-.6-.3-.3 1.8-2.6 4.6-5.2 2.9-2.5 5.4-4.8 5.7-5.1.3-.3 2.9-2.8 5.8-5.5 5.8-5.6 5.6-6.1 2.7 7.1-.9 4-1.4 7.7-1 8.2.3.5.1 1.2-.4 1.5-.8.6-2.7 10.2-2.3 11.8.1.5-.2.8-.6.8-.5 0-.9 1.2-1 2.7-.1 2.6-.5 5.2-1.6 9.8-.2 1.1-.5 2.1-.6 2.2-.2.2-.3 1.1-.5 2-.1 1-.5 2.9-.8 4.3-.4 1.4-.9 3.8-1.2 5.5-.3 1.6-.8 4.1-1.1 5.5-.2 1.4-.7 3.6-1.1 5-.3 1.4-.7 2.9-.9 3.5-.1.5-.5 2.6-.9 4.5-.3 1.9-1.2 6.2-2 9.5-4.6 19.7-6.7 29.2-7 31-.1 1.1-.5 2.7-.9 3.5-.5 1.2-3.4 13.8-5.1 22.5-1.6 7.4-3.6 16.2-4.2 17.5-.3.8-.7 2.2-.8 3-.1.8-.8 3.5-1.4 6-.6 2.5-1.4 5.6-1.7 7-.3 1.4-2.8 11.3-5.5 22-2.8 10.7-5.3 20.6-5.5 22-.3 1.4-.7 3.2-.9 4-.2.8-.4 1.5-.5 1.5-.2 0-.7 2-1.5 5.9-.3 1.6-1 3.7-1.6 4.8-.5 1-.8 1.8-.5 1.8.3 0 0 1.5-.5 3.2-.6 1.8-1.2 4.2-1.4 5.3-.3 1.1-1.3 5-2.4 8.8-1.1 3.7-2 7-2 7.2-.1.3-.1.6-.2.7 0 .2-.3 1.2-.5 2.3-.3 1.1-.6 2.4-.7 3-.1.5-.6 1.6-1 2.2-.5.7-.6 1.3-.3 1.3s.1 1.1-.4 2.5-1.2 3.6-1.4 4.8c-.3 1.2-2.3 8.7-4.6 16.6-2.3 8-4.3 15.2-4.5 16-.2.9-.8 2.8-1.4 4.4-.6 1.5-.7 2.7-.4 2.7.4 0 .2.5-.5 1.2s-1.2 2.2-1.2 3.4c0 1.3-.5 2.6-1 2.9-.6.4-.8 1.1-.5 1.6.4.5.3 1.5-.2 2.2-.4.6-.8 1.5-.9 1.9-.1.5-.2.9-.4 1-.2.3-.5 1.7-1.4 5.4-.2 1.2-1.2 4.4-2.1 7-.9 2.7-1.8 5.7-2 6.6-.2 1-2.1 7.1-4.1 13.5-2.1 6.5-3.8 12-3.9 12.3-.3 1.4-6.1 19.7-8.7 27.5-1.7 4.9-3.1 9.4-3.3 10-.1.5-.5 1.7-.8 2.5-.3.8-2.6 7.6-5 15-6.3 18.7-12.6 37.1-13.7 39.5-2.1 5.1-3.9 10.5-3.5 10.5.3 0-.2 1.1-1.1 2.5-.9 1.4-1.3 2.5-.9 2.5s.2.6-.4 1.3c-.6.8-1.2 2.2-1.4 3.3-.2 1-1.1 3.6-2 5.8-.9 2.1-1.7 4.2-1.7 4.7s-.6 2.3-1.4 4.1c-.8 1.8-2.1 4.9-3 7-.9 2-1.6 4.1-1.6 4.7 0 .6-.4 1.9-1 2.9-.5.9-3.5 8.2-6.5 16.2-3.1 8-6.2 15.8-7 17.5-2 4.5-2.8 6.9-2.7 7.7.1.5-.2.8-.6.8-.5 0-.9.6-.9 1.2 0 .7-.9 3.3-2 5.8-1.8 4.1-3.3 7.6-3.8 9-.6 1.6-4 9.2-6.2 13.8-1.4 2.9-2.6 5.8-2.7 6.5-.1.7-1.4 3.7-2.8 6.7-1.5 3.1-2.8 6.2-3 7-.2.8-.7 1.8-1.1 2.1-.5.3-.9 1.2-1.1 2-.1.8-1.4 3.8-2.9 6.6-1.5 2.9-2.8 5.6-2.8 6-.1.5-2 4.6-4.2 9.3-2.2 4.7-4 8.8-3.9 9.2.1.5-.2.8-.8.8-.5 0-1 .5-1 1.1 0 1.6-10.3 22.3-11.5 23.1-.5.4-.7.8-.2.8.6 0-3.4 8.1-10.9 21.7-1.2 2.2-2 4.4-1.7 4.7.4.3.2.6-.4.6-.5 0-2 2.4-3.4 5.2-1.3 2.9-2.6 5.5-3 5.8-.3.3-2.7 4.5-5.4 9.5-2.7 4.9-8.1 14.5-12.2 21.2-4 6.8-7.3 12.7-7.3 13.3 0 .5-.4 1-.8 1s-2.1 2.5-3.7 5.5c-1.5 3-3.2 5.5-3.7 5.5-.4 0-.8.5-.8 1.1 0 .5-3.6 6.4-8 13s-8 12.4-8 12.9-.4 1-.8 1.2c-.5.1-3.3 3.9-6.3 8.3-6.7 9.9-11.2 15.9-12.1 16.3-.5.2-.8.9-.8 1.6 0 .6-1.5 2.8-3.4 4.8s-3.2 3.8-3 4.1c.3.3-.6 1.3-1.9 2.3-1.3 1.1-2.3 2.2-2.3 2.5.1.5-3.4 5.4-5.9 8.2-.6.7-2.8 3.4-5 6.2-2.2 2.7-4.7 5.6-5.5 6.5-.8.9-3.3 3.8-5.5 6.4-7.4 8.7-17.9 20-29.1 31.1-11.2 11.1-25.2 24.3-26 24.4-.5.1-5 3.9-7.6 6.4-1 .9-2.2 1.7-2.6 1.7-.4 0-1.4.9-2.2 2-.8 1.1-1.8 2-2.3 2-.5 0-1.4.6-2.2 1.2-.7.7-2.5 2.2-4.1 3.3-1.5 1.1-3.3 2.6-4.1 3.3-.7.7-1.3 1-1.3.5 0-.4-.5 0-1.1.9-.5 1-1.6 1.8-2.4 1.8-.7 0-1.5.3-1.7.7-1.1 2.5-43.8 27.5-43.8 25.7 0-.3-1.2.3-2.7 1.4-1.6 1.1-3 2-3.3 2-.3 0-2.3.7-4.5 1.6-8.5 3.6-30.6 11.2-35 12.1-1.1.2-2 .4-2 .5 0 .1-1.1.4-2.5.6-1.4.3-4.1.9-6 1.4-1.9.5-5.1 1.2-7 1.5-1.9.3-4.2.8-5 1-1.3.3-4.4.8-15.5 2.1-9.7 1.2-19.9 1.6-34.5 1.5-14.9-.1-25.5-.6-25.5-1.1 0-.1-2.5-.3-5.5-.5s-7.3-.6-9.5-1c-2.2-.3-5.6-.7-7.5-1-3.1-.4-25-4.7-30.5-6-1.1-.3-2.9-.7-4-.9-1.1-.3-5.6-1.4-10-2.6-4.4-1.2-8.7-2.3-9.5-2.5-.8-.2-3.4-1-5.8-1.9-2.3-.8-4.6-1.6-5-1.7-2.2-.5-15.9-4.8-18.7-5.9-4.9-1.9-6-2.3-6.7-2.2-.5.1-.8-.2-.8-.6 0-.5-.7-.9-1.5-.9-1.3 0-3.9-.9-13.1-4.8-2.7-1.2-3.2-1.1-4.2.6-.7 1-1.2 2.3-1.2 2.9 0 .6-.9 3.2-2.1 5.8-3.7 8.2-3.8 8.6-4.8 11.2-.5 1.4-.9 2.8-1 3.3 0 .4-1.2 3-2.6 5.7-1.4 2.8-2.2 5-1.9 5 .4 0 .1.6-.5 1.3-.6.8-.8 1.7-.4 2 .3.4 0 .7-.7.7s-1 .3-.7.7c.4.3.2 1.2-.4 2-.6.7-.8 1.3-.3 1.3s.3.4-.4.9c-.7.4-1.4 1.4-1.5 2.2-.3 1.5-2 6.2-4.2 11.4-.7 1.6-3.9 9.3-7 17-3.1 7.7-6.2 15.1-6.7 16.5-.6 1.4-1.2 3-1.4 3.7-.1.7-.9 2.7-1.8 4.4-.9 1.8-1.6 4-1.6 5.1 0 1-.4 1.8-.9 1.8-.9 0-2.6 4.8-2.3 6.2.1.5-.3.8-.8.8-.6 0-1 1.1-1 2.5s-.5 2.5-1.1 2.5c-.6 0-.9.6-.6 1.4.3.8.3 1.6-.1 1.8-.4.2-2.7 5.2-5.1 11.3-2.4 6-5.4 13.4-6.7 16.3-1.3 2.9-2.4 5.8-2.4 6.6 0 .7-.3 1.6-.6 1.9-1 1-5.4 12-5.4 13.4 0 .7-.4 1.3-.8 1.3-.5 0-.9.6-.9 1.2 0 .7-.7 2.9-1.5 4.8-1.4 3-2.7 6.3-3.3 8-.3 1-1.8 4.6-4.5 11-2.7 6.5-4.2 10.1-4.5 11-.1.3-.7 1.8-1.4 3.5-.7 1.6-4.4 10.9-8.3 20.5-8.5 21.3-17.7 43.8-18.9 46.5-.4 1.1-2.7 6.7-4.9 12.5-2.3 5.8-4.8 11.7-5.6 13.2-.8 1.5-1.5 3-1.4 3.3 0 .3-.7 2.1-1.5 4.1-.8 2-1.5 3.8-1.5 4.1 0 .2-.9 2.3-1.9 4.6-3.5 7.8-3.9 7.4 9.9 12.7 18.8 7.3 33.1 12.4 47.5 17 7.2 2.3 13.7 4.4 14.5 4.7.8.3 2.3.8 3.2.9 1 .2 2.3.5 3 .6.7.2 1.5.5 1.8.8.5.5 11.1 3.6 19 5.5.8.2 1.5.4 1.5.5 0 .1 1.1.4 2.5.7 3.9.7 5.5 1.1 5.5 1.3 0 .1.7.3 1.5.5.8.1 5.3 1.3 10 2.5s9.6 2.4 11 2.6c1.4.3 7.5 1.6 13.7 2.9 6.1 1.3 12.6 2.6 14.5 2.8 1.8.3 4 .7 4.8 1 .8.3 4.9 1.1 9 1.7 4.1.6 8.6 1.4 10 1.6 1.4.2 4.3.7 6.5 1 2.2.2 4.9.7 6 .9 3.2.7 13.7 1.8 17.3 1.9 1.7 0 3.2.3 3.2.6 0 .9 143.4.5 144.9-.4 1-.7 1.2-.6.6.4-.6.9-.4 1.1.4.5.7-.4 2.8-.9 4.7-1.1 1.9-.2 5.1-.6 7.2-1 7.6-1.1 9.8-1.4 13.2-1.8 4-.5 9.8-1.5 12-2.1.8-.2 3.3-.7 5.5-1 4.8-.6 6.3-.9 13-2.5 2.8-.7 6.4-1.4 8-1.7 1.7-.2 8.2-1.8 14.5-3.5 6.3-1.6 12-3.1 12.5-3.2.6-.2 3-.8 5.5-1.5 2.5-.8 5.2-1.5 6-1.6.8-.2 1.6-.4 1.8-.5.2-.3.2-.3 4.7-1.5 1.7-.4 3.5-1.1 4-1.5.6-.4 1.8-.6 2.8-.5.9.2 1.7-.2 1.7-.8 0-.5.3-.8.6-.5.3.4 2.2 0 4.2-.9 2-.8 4.3-1.6 5.1-1.8 2.4-.5 15.4-5.2 25-9 11.3-4.4 13.4-5.2 14.4-5.3.4-.1 2.4-1 4.5-2.1 4.4-2.3 7.4-3.5 8.5-3.3.4.1.7-.2.7-.8 0-.6.3-.9.8-.8.4.1 1.7-.3 2.8-1 1.2-.6 2.4-.8 2.8-.5.3.3.6.1.6-.5s1.5-1.5 3.3-2.1c1.7-.6 8.8-4 15.7-7.6 6.9-3.5 15.5-7.8 19.3-9.6 3.7-1.8 6.7-3.6 6.7-4 0-.4 1.2-1.2 2.8-1.8 1.5-.6 4.1-1.9 5.7-2.9 1.7-.9 6.4-3.7 10.5-6.1 4.1-2.5 7.7-4.8 7.8-5.3.2-.4.8-.8 1.3-.8.9 0 11.6-6.5 14.4-8.7.6-.4 5.1-3.5 10-6.8 5-3.2 9.5-6.4 10.2-7 3.5-3 4.1-3.3 4.7-2.8.3.3.8-.2 1.2-1.1.3-.9 1.2-1.6 2-1.6s1.4-.3 1.4-.8c0-.4 2.3-2.2 5-4.1 2.8-1.9 5-3.8 5-4.3 0-.4.3-.7.8-.6.4.2 1.4-.3 2.2-1 .8-.7 4.4-3.5 8-6.3 3.6-2.8 7.5-5.9 8.8-7 1.2-1 2.5-2 2.9-2.1.4-.2 1.9-1.4 3.4-2.8 1.4-1.4 5-4.5 7.9-7 2.9-2.5 6.2-5.3 7.3-6.3 1.1-.9 2.4-1.7 2.9-1.7.4 0 .8-.7.8-1.5s.3-1.5.8-1.5c.9 0 6.6-4.8 13.8-11.8 3-2.8 6-5.2 6.6-5.2.6 0 .9-.2.6-.5-.3-.3 2.4-3.4 6-6.8 11.1-10.6 15.2-14.9 15.2-16 0-.6.2-.8.5-.5.6.5 4.3-3.2 16.6-16.6 12.8-13.9 15.5-16.8 23.4-26.1 3.3-3.9 6.2-7.2 6.5-7.5.3-.3 3.5-4.1 7-8.5 3.6-4.4 6.9-8.5 7.5-9.1.6-.7 3.6-4.4 6.6-8.3 2.9-3.9 5.7-7.1 6.1-7.1.5 0 .8-.5.8-1.1 0-.6.6-1.7 1.2-2.4 2-2.2 3.2-3.7 5.8-7.5 1.3-1.9 2.7-3.7 3-4 .3-.3 2.2-2.8 4.1-5.5 1.8-2.8 4-5.4 4.7-5.8.6-.4 1.2-1.4 1.2-2.2 0-.7.4-1.5.8-1.7.4-.1 2.8-3.2 5.2-6.8 2.5-3.6 5.1-7.1 5.7-7.8.7-.7 1.3-1.7 1.3-2.1 0-.4.8-1.6 1.8-2.7 1-1 2.9-3.7 4.2-5.9 1.3-2.2 3.2-4.9 4.2-5.9 1-1.1 1.8-2.5 1.8-3.2 0-.7.3-1.4.8-1.6.8-.4 5.2-6.5 5.2-7.3 0-.3.5-1.1 1.1-1.8.6-.7 3.5-5 6.4-9.7 3-4.7 5.8-9 6.2-9.6.4-.5 1.4-2.1 2.2-3.5.8-1.3 6.6-11 12.9-21.4 6.3-10.5 12.7-21.1 14.2-23.7 1.6-2.5 3.1-5.6 3.5-6.7.3-1.2 1.1-2.1 1.6-2.1.6 0 .7-.5.4-1-.3-.6-.3-1 .2-1 .4 0 1.3-1 1.9-2.3 2.2-4.7 10.8-20.3 12.6-22.9 1.1-1.6 1.6-3.2 1.3-3.8-.3-.5-.2-1 .3-1s2.9-3.9 5.3-8.8c2.4-4.8 4.6-8.9 4.9-9.2 1.1-1.1 18.5-36.5 18.2-37.2-.1-.5.2-.8.6-.8.5 0 1.5-1.8 2.2-4 .7-2.2 1.7-4 2.2-4 .4 0 .8-.6.8-1.3 0-.6 1.1-3.3 2.5-6 1.4-2.6 2.2-4.7 1.8-4.7-.5 0-.3-.4.2-.8.6-.4 2.9-4.8 5.2-9.7 2.3-5 5.6-12.2 7.4-16 1.8-3.9 3.4-7.9 3.6-9 .2-1 .7-2.2 1.1-2.5.9-.5 2.5-3.9 2.7-5.5.1-.6.8-2.4 1.7-4 .9-1.7 2.8-5.8 4.2-9.2 1.4-3.5 3.8-8.9 5.2-12 3.8-8.7 5.4-12.7 5.9-14.3 0-.3.9-2 1.8-3.7 1-1.8 1.7-3.4 1.6-3.5 0-.2.5-1.7 1.1-3.3.7-1.7 1.8-4.4 2.5-6 .7-1.7 5.4-13.6 10.4-26.5 5.1-12.9 9.9-25 10.7-26.8.8-1.8 1.4-3.9 1.4-4.7 0-.8.4-1.5 1-1.5.5 0 .7-.7.4-1.5-.4-.8-.1-1.5.5-1.5s1-.3.9-.8c-.3-1 2.3-8.5 3.5-10 .5-.6.7-1.2.4-1.2-.3 0 .7-3.2 2.3-7 1.6-3.9 2.6-7 2.3-7-.3 0-.1-.6.4-1.3.9-1 2.9-6.2 4-10.2.8-3.1 5.9-17.1 6.3-17.5.3-.3.6-1.3.8-2.4.2-1 .9-3 1.5-4.5.6-1.4 1.1-3.1 1.2-3.6 0-.6.6-2 1.3-3.3.7-1.2 1-2.2.6-2.2-.3 0-.2-.6.4-1.2.5-.7 1.3-2.8 1.7-4.5.3-1.8 1-3.3 1.5-3.3s5 2.2 10.1 5c5.1 2.7 9.5 5 9.8 5 .3 0 1.7.9 3.1 2 1.4 1.1 3.3 2 4.3 2 .9 0 1.7.4 1.7.9 0 .8 2.1 1.7 4.4 1.9.5 0 1.2.4 1.5.9.3.5 12.3 6.8 26.6 13.9 14.3 7.1 26.3 13.3 26.6 13.7.3.5 1 .9 1.5.9s3.2 1.1 6.1 2.4c2.8 1.3 6.2 2.9 7.5 3.4 1.3.5 3 1.4 3.8 1.9 4 2.2 12.6 6.1 13.8 6.1.6 0 1.2.4 1.2.9s2 1.5 4.5 2.2c2.5.7 4.5 1.6 4.5 2 0 .4 1 1 2.3 1.4 2.9 1 2.5.8 8 3.3 7.1 3.3 13 5.9 26.7 11.9 17 7.5 17.4 7.6 18.3 7.5.4-.1.7.3.7.9 0 .6.7.9 1.5.5.8-.3 1.5-.2 1.5.3 0 .9 4.8 2.6 6.3 2.3.4-.1.7.3.7.9 0 .5.4.8.9.5.5-.4 1.1-.2 1.3.4.2.6 1.2 1.2 2.3 1.4 1.1.3 6.5 2.3 12 4.6 7.9 3.3 28.6 11.6 46 18.5 1.1.5 2.3.7 2.8.7.4-.1.7.2.7.8 0 .6.3.9.8.8.4-.2 2.1.2 3.7.9 1.7.6 6.8 2.5 11.5 4.3 4.7 1.8 9.9 3.8 11.7 4.6 1.7.8 3.6 1.4 4.3 1.4.6 0 2.4.7 4 1.5s3.7 1.6 4.7 1.8c1 .1 2.3.6 2.9.9.5.4 5.3 2.1 10.5 3.9 5.2 1.8 9.6 3.5 9.9 3.8.6.7 2.6 1.2 5.2 1.4 1 .1 1.8.5 1.8.9s1.1.8 2.5.8 2.5.5 2.5 1.2c0 .6.2.9.6.6.3-.3 5.5 1.2 11.7 3.4 6.2 2.2 11.9 4.1 12.7 4.3.8.3 6.7 2.3 13 4.5 10.8 3.8 13.3 4.6 17 5.5.8.2 1.6.4 1.8.5.1.2.5.3 1 .4.4.1 1.2.5 1.9.9.6.4 2.3.8 3.7.9 1.4.1 2.6.6 2.6 1.1 0 .4.4.6.8.3.5-.3 2 .1 3.5.9 1.4.7 2.8 1.1 3.1.7.3-.3.6 0 .6.5 0 .6.8 1 1.8.9.9-.2 2.4.1 3.2.5.8.5 3.8 1.5 6.5 2.3 2.8.8 11.8 3.5 20 6.1 8.3 2.6 15.5 4.8 16 4.9.6.1 1.6.5 2.3.9.6.5 1.2.6 1.2.3s1.6.2 3.5 1 3.5 1.2 3.5.9c0-.2 2.2.4 5 1.5s5 1.7 5 1.5c0-.3 1.6.1 3.5.9 2 .9 3.8 1.5 4 1.6.3 0 .6 0 .8.1.1 0 .9.2 1.7.4 1.6.3 7.7 2 21.5 6 5 1.4 9.9 2.7 10.9 3 1 .2 3.3.9 5 1.4 3 1 24.9 6.8 29.1 7.8 2.9.6 3.8.9 5.7 1.7.9.4 2.2.5 2.8.1.5-.3 1-.1 1 .4 0 .6.3 1 .8.9.8-.2 5.3.8 9.7 2.2 1.7.5 4.1 1.1 5.5 1.4 1.4.3 7.9 1.9 14.5 3.6 6.6 1.6 12.9 3.2 14 3.5 1.1.2 5.8 1.4 10.5 2.6 4.7 1.1 9.4 2.2 10.5 2.5 1.1.2 7.6 1.8 14.5 3.4 16.1 4 16 3.9 19.5 4.5 1.7.3 3.9.9 5 1.2 1.1.4 2.9.8 4 .8s2.6.4 3.3.9c.7.4 1.6.5 1.9.2.3-.3 1.2-.1 2 .6.7.6 1.6.8 1.9.5.3-.3 2.3.1 4.4.8 2.1.7 4.1 1.1 4.4.8.3-.4.6-.2.6.3s.8 1 1.8 1.1c2.2.1 6.9.9 10.7 1.7 1.7.4 4.8 1.1 7 1.6 17.2 3.9 27.8 6 28.5 5.5.4-.3 1-.1 1.2.4.3.8 3.1 1.4 11.3 2.5 1.1.1 3 .6 4.1 1 1.2.4 3.5.9 5 1.1 1.6.2 4 .7 5.4 1 1.4.3 3.6.8 5 1.1 1.4.2 3.6.7 5 1 1.4.3 3.9.8 5.5 1 3.8.5 7 1.2 7 1.4 0 .1 1.4.4 3 .6 2.7.3 6.2 1 7.5 1.4.3.1 1.3.2 2.3.1.9-.1 1.7.2 1.7.8 0 .6.7.8 1.5.5.8-.4 2.3-.3 3.3.1.9.4 3.3.9 5.2 1.1 1.9.3 6.4 1.1 10 1.9 3.6.8 8.5 1.7 11 2 2.4.3 6 .9 8 1.4 1.9.5 5.1 1.2 7 1.4 1.9.3 7.6 1.3 12.5 2.2 9.6 1.8 10.6 1.9 17.3 3 2.4.4 4.9.8 5.5.9.7.2 3.5.6 6.2 1.1 2.8.4 5.8 1.2 6.8 1.7 1.1.6 1.7.5 1.7-.2s.6-.8 1.9-.1c1.1.6 4 1.2 6.5 1.3 2.5.2 4.6.5 4.6.8 0 .3 1.5.7 3.3.8 4.7.4 6 .7 7.6 1.6 1 .7 1.2.6.6-.4s-.4-1.1.6-.4c.8.4 2.1 1 2.9 1.1 6.5 1 10.9 1.6 13.3 1.7 1.5.1 2.7.4 2.7.7 0 .3 1.4.5 3 .4 1.7-.1 3 .1 3 .5s.6.7 1.3.7c2.1.1 13.8 1.6 19.7 2.6 1.4.3 4.8.8 7.5 1.2 2.8.3 6.1.8 7.5 1.1 1.4.2 5.7.9 9.5 1.4 3.9.6 7.7 1.2 8.5 1.5.8.2 4.2.7 7.5 1 3.3.3 6.9.8 8 1 2 .4 7.1 1.2 13 2 6.4.9 10.1 1.4 14.1 2 2.2.4 5.6.8 7.5 1 1.9.2 3.4.4 3.4.5 0 .1 1.8.3 3.9.6 6.6.7 11.1 1.2 11.1 1.4 0 .1 1.6.3 3.5.5s3.5.4 3.5.5c0 .1 1.6.4 3.5.5 1.9.2 5.8.7 8.5 1 2.8.4 6.5.8 8.2.9 1.8 0 3.3.3 3.3.6 0 .5 5 1 12.8 1.3 1.2.1 2.2.3 2.2.7 0 .3 1.2.6 2.8.6 1.5.1 5.2.4 8.2.8 3 .4 7.3.9 9.5 1.1 2.2.3 5.6.7 7.5 1 1.9.3 5.8.8 8.5 1 2.8.3 6.4.7 8 1 1.7.2 5.5.7 8.5 1 5.3.6 7.3.8 15 1.9 1.9.3 5.8.7 8.6 1 2.7.3 13.1 1.5 23 2.6 18.8 2.2 24.6 2.9 30.6 3.4 2 .2 4.1.7 4.7 1 .6.4 1.1.2 1.1-.5 0-.8.4-.8 1.3-.1.6.5 5.3 1.3 10.2 1.7 5 .4 10.8.9 13 1 2.2.2 4 .4 4 .5 0 .1 1.8.4 4 .6 7.8.6 16 1.5 19 1.9 1.7.3 6.4.8 10.5 1.1 9.4.8 9.2.8 10.8 1.7.7.5 1.2.3 1.2-.3s.5-.8 1.2-.4c.6.4 3 .9 5.2 1 3.6.2 9 .7 20.6 1.9 3.9.4 13.4 1.3 19.5 1.9 2.2.2 9.2.9 15.5 1.5 14.3 1.4 20.9 2 28 2.6 3 .3 7.6.7 10.3 1 7.7.8 13.8 1.4 21.7 2 4.1.4 8.6.8 10 1 1.4.2 5.8.7 9.8 1 4 .2 9.6.7 12.5 1 2.9.3 8.1.8 11.7 1.1 3.6.2 8.5.6 11 .9 2.5.2 7.7.6 11.5 1 3.9.3 8.8.8 11 1 2.2.2 7.4.7 11.5 1 4.1.3 9.8.7 12.5 1 14.8 1.4 31.8 2.7 35.8 2.9 1.5.1 2.7.5 2.7 1s.6.3 1.3-.3c.8-.6 1.6-.8 1.9-.6.6.6 8 1.5 17.3 2 3.3.2 6 .4 6 .5 0 .1 2.3.3 5 .5 9.9.6 21.1 1.5 26.5 2 5.7.6 10.1 1 25.5 2.1 9.8.7 15 1.1 15 1.4 0 0 2.9.3 6.5.5s9.4.6 13 .9c3.6.3 9.7.8 13.5 1.1 3.9.4 9.2.8 12 1 2.7.3 7.6.7 11 1 3.3.3 8.7.7 12 1 3.3.3 9.4.8 13.5 1.1 4.1.3 9.8.7 12.5.9 2.8.3 7.9.7 11.5.9 3.6.3 8.8.8 11.5 1 2.8.3 8.8.8 13.5 1.1 4.7.3 10.1.8 12 1.1 1.9.3 6.7.7 10.5.9 7.1.5 13.4 1 26 2 3.9.4 9.5.8 12.5 1 3 .2 5.5.4 5.5.5 0 .1 2.3.3 5 .5 2.8.2 8.2.6 12 .9 17.3 1.6 20.1 1.8 22.2 1.7 1.2 0 3.4.4 4.8.9 1.7.6 2.5.6 2.5-.1 0-.6.4-.7 1-.4 1 .6 4.8 1.1 16.5 1.9 10.4.8 19.5 1.7 24 2.2 2.2.3 7 .7 10.7.9 3.7.2 9.1.7 12 1 5.6.6 11.6 1.1 21.3 2 3.3.3 8.3.7 11 1 14.2 1.3 17.5 1.6 23 2.1 3.3.3 8 .7 10.5 1 2.5.3 6.8.7 9.5.9 7.4.7 14.2 1.4 21.5 2.1 3.6.4 8.9.8 11.7.8 2.9.1 5.3.4 5.3.7 0 .3 1.9.7 4.3.8 4.9.1 14.2.9 14.2 1.2 0 .1 2 .3 4.5.4 6.4.4 13.2 1.3 13.8 2 .3.2 1.1 0 1.9-.6.7-.6 1.3-.8 1.3-.3s1.2 1 2.8 1c1.5.1 4.5.3 6.7.4 5.9.4 6.3.2 6.3-2.7.1-1.6.4-5.7.7-9.3.3-3.6.7-7.6.8-9 .1-1.4.5-3 1-3.7.4-.6.3-1.4-.3-1.8-.6-.4-.7-1.2-.3-1.8.4-.7.9-2.8 1.1-4.7.7-8.4 1-11.5 1.2-11.5.1 0 .3-2.3.5-5 .2-2.8.6-7.5.9-10.5 1.1-8.8 1.9-17.3 3-29 .3-3 .8-7.5 1.1-9.9.3-2.5.8-7.2 1.1-10.5.5-6.3 1-11.3 1.8-18.1.6-5.2 1.4-12.6 2.1-19.5.3-3 .8-7.3 1-9.5.2-2.2.7-6.9 1-10.5.3-3.6.8-7.6 1-9 .2-1.4.7-5.4 1-9 .4-3.5.8-8.5 1.1-11 1.1-11.6 1.4-13.8 1.8-17.5.3-2.2.9-7.4 1.2-11.5.9-9.8 1.2-12.5 1.4-12.5.2 0 1.2-13.1 1.4-17.7 0-2 .3-3.5.7-3.3.3.3.6-1.2.6-3.3.1-3.4 1.1-16.7 1.3-16.7.2 0 1.7-14.1 2.5-23.5.2-2.5.4-4.5.5-4.5.3 0 .8-5.3 1.4-13 .2-3.3.5-6 .6-6 .1 0 .3-1.8.4-4 .7-8.6 1.7-18.1 2.2-19.7.6-2.1-1.1-3.1-6.1-3.4-2.2-.1-4-.3-4-.4 0-.1-2.5-.3-5.5-.6-3-.2-7.5-.6-10-.9-5.4-.6-12.3-1.3-20.4-2-3.2-.3-6.8-.7-8-1-1.1-.2-5.5-.7-9.6-1-4.1-.3-9.1-.7-11-.9-3.6-.4-10.7-1.1-21.5-2.1-11.9-1.1-17.1-1.6-21-2-2.2-.3-6.6-.7-9.9-1-3.2-.3-6.1-.7-6.5-.9-.4-.3-1.3-.1-2.1.4s-1.9.5-2.5 0c-.5-.4-4.8-1.1-9.5-1.4-4.7-.3-10.7-.8-13.5-1.1-2.7-.4-7.9-.8-11.5-1-3.6-.2-6.5-.5-6.5-.6 0-.1-2-.3-4.5-.4-2.5-.2-7.4-.6-11-1-3.6-.3-9-.8-12-1-3-.2-5.6-.5-5.7-.6-.2 0-2.3-.1-4.8-.2-2.5 0-4.5-.5-4.5-.9 0-.5-.9-.4-2 .2-1.1.6-2 .7-2 .3 0-.4-2.4-1-5.3-1.2-10-.6-14.2-.9-22.2-1.6-4.4-.4-9.9-.8-12.2-.9-2.4 0-4.3-.3-4.3-.6s-2.1-.6-4.8-.6c-6.4-.2-22.6-1.4-25.4-1.9-1.3-.3-5.1-.6-8.5-.7-3.5-.1-6.3-.6-6.3-1s-1.1-.3-2.4.2c-1.3.5-2.6.6-2.9.4-.6-.6-4.6-1.1-16.2-1.9-4.9-.3-10.6-.8-12.5-1-1.9-.2-7.1-.6-11.5-.9-4.4-.4-10-.8-12.5-1-10.2-1-19.9-1.8-26-2.1-3.6-.3-8.5-.7-11-.9-2.5-.3-7.6-.8-11.5-1.1-16-1.2-19.2-1.5-24-2-2.7-.3-8.6-.8-13-1-4.4-.2-8-.5-8-.6 0-.1-3.3-.4-16-1.3-4.4-.3-10-.8-12.5-1-2.5-.3-7.6-.7-11.3-1-3.8-.3-7.2-.8-7.8-1.1-.5-.4-.9-.1-.9.5s-.5.8-1.1.4c-.6-.3-3-.8-5.3-1-2.2-.2-6.8-.6-10.1-.9-5.5-.5-16.7-1.3-25.5-1.8-1.9-.2-4.1-.6-4.7-1-.8-.5-1.3-.3-1.3.3s-.5.8-1.2.4c-.7-.5-3.5-.9-6.3-1.1-7.8-.5-15-1.1-15-1.3 0-.1-3.4-.3-7.5-.6-4.1-.2-9.7-.7-12.5-1-2.7-.2-7.7-.7-11-.9-7.8-.5-17.3-1.3-23.3-2-5.9-.6-17.4-1.6-22.7-2-7.3-.5-18.9-1.5-22.5-2-1.9-.3-6.9-.7-11-1-7.1-.6-12.9-1.1-23-2-2.5-.2-7.4-.7-11-1-9.4-.8-15.2-1.5-16.2-2.1-.4-.3-.8 0-.8.7 0 .8-.4.8-1.3.1-.6-.6-5.5-1.3-10.7-1.6-5.2-.3-11.1-.8-13-1.1-4.1-.5-14.4-1.5-21.5-2-2.7-.2-5-.4-5-.5 0-.1-1.8-.3-4-.5s-6.7-.6-10-1c-3.3-.3-7.8-.7-10.1-.9-2.2-.2-4.7-.7-5.4-1.1-.9-.6-1.1-.4-.5.5.6.9.4 1.1-.5.5-1.3-.8-9.5-1.8-16.2-1.9-2.1 0-3.8-.3-3.8-.6 0-.4-2-.7-4.5-.7-2.5-.1-4.6-.2-4.7-.3-.2-.1-2.1-.3-4.3-.5-2.2-.2-6.2-.6-9-.9-5.9-.7-13.1-1.4-20-2.1-10.9-1-15.1-1.5-17-1.9-1.1-.2-5.4-.7-9.5-1.1-4.1-.4-8.8-.8-10.5-1-1.6-.2-5.5-.7-8.5-1-5-.5-9.8-1.1-17-2.1-1.4-.2-5.4-.6-9-.9-3.6-.3-7.6-.8-9-1-3.8-.6-10-1.4-15-1.9-17.8-2-22.3-2.7-23.2-3.2-.4-.3-.8 0-.8.7 0 .8-.3.9-1.3 0-.8-.6-3.9-1.3-6.9-1.4-3-.2-5.9-.6-6.4-.9-.5-.2-2.6-.4-4.6-.4-2.1.1-3.8-.2-3.8-.5s-1-.5-2.2-.4c-1.3.1-2.6-.3-3-.9-.5-.7-.8-.7-.8.2 0 .8-.5 1-1.2.5-.7-.4-2.2-.8-3.3-1-1.1-.1-3.8-.4-6-.7-10-1.2-15.2-1.8-17.7-1.9-1.6 0-2.8-.3-2.8-.6s-2.6-.7-5.7-.9c-3.1-.1-6.2-.7-6.9-1.3-.8-.7-1.4-.7-1.9.1-.3.6-1.2.7-1.8.3-.6-.4-2.3-.8-3.7-.9-1.4-.2-4.3-.6-6.5-.9-2.2-.3-5.6-.8-7.5-1.1-7.5-.9-19.2-2.6-21.5-3-1.1-.2-4-.7-6.5-1-2.5-.3-5.2-.7-6-.9-.8-.2-4.2-.7-7.4-1.1-3.3-.3-6.4-.7-7-.9-3.9-.8-8.7-1.6-12.1-1.9-2.2-.3-5.1-.7-6.5-1-1.4-.2-4.4-.7-6.7-1-2.2-.3-5.2-.8-6.5-1.1-2.3-.5-8.9-1.5-13.9-1.9-1.4-.2-3-.5-3.5-.8-.5-.3-2.1-.4-3.6-.3-1.6.1-2.8-.1-2.8-.5 0-.3-1-.7-2.2-.7-2.6-.2-9-1.1-12.8-1.9-2.7-.5-4-.8-11.5-1.9-2.7-.4-5.9-.9-7-1.1-1.1-.3-3.6-.7-5.5-1-5.1-.8-5.9-.9-31-5.4-9.1-1.6-18.1-3.2-20-3.5-5-.9-6.8-1.2-13-2.5-3-.6-7-1.3-8.9-1.6-1.8-.3-4.3-.8-5.5-1.1-1.1-.2-3.2-.6-4.6-.8-1.4-.2-3.6-.6-5-.9-1.4-.4-4.1-.9-6-1.2-1.9-.3-4.5-.7-5.7-.9-1.2-.2-2.6-.6-3.1-.9-.4-.3-3.1-.8-5.8-1.2-6.4-.8-8.2-1.2-9.2-1.8-.4-.2-2.9-.7-5.6-1-2.6-.3-5.1-.8-5.6-1.1-.5-.3-2.1-.7-3.7-.9-3.2-.5-4.2-.7-20.3-4.2-6.3-1.4-14.6-3.1-18.5-3.9-3.8-.8-13.1-2.8-20.5-4.5-7.4-1.7-14.4-3.3-15.5-3.5-1.1-.2-2-.4-2-.5 0-.2-2.1-.6-6.8-1.4-2.1-.3-4.6-1-5.5-1.5-.9-.4-2.3-.6-2.9-.4-.7.3-1.3 0-1.3-.7 0-.6-.4-.9-.8-.6-.4.3-2.6 0-4.8-.5-2.1-.5-5.2-1.2-6.9-1.6-4-.7-4.7-.9-6.5-1.6-.8-.3-4-1.1-7-1.7-3-.7-6.8-1.6-8.5-2.1-3.3-.9-31.2-8-44-11.1-4.4-1-9-2.4-10.2-3-1.3-.6-2.6-.8-3-.5-.3.4-1.2.2-2-.4-.7-.6-1.3-.8-1.3-.4s-.6.3-1.2-.3c-.7-.5-2.9-1.3-4.8-1.7-3.1-.6-21.9-5.8-36.5-10.1-2.7-.8-5.9-1.6-7-1.9-2.3-.6-10.6-3-18.9-5.6-3.3-1.1-6.8-1.9-7.8-1.9s-1.8-.4-1.8-.8-1.2-.9-2.6-1c-1.5-.1-3.3-.7-4-1.3-.8-.6-1.4-.9-1.4-.5 0 .3-1.2.1-2.7-.5-2.5-1-4.2-1.4-7.8-2.2-.5-.2-1.6-.6-2.2-1-.7-.5-2.3-1-3.5-1.3-1.3-.3-2.7-.6-3.3-.8-1.5-.3-8.8-2.7-10.5-3.3-.8-.3-2-.7-2.7-.9-2-.4-26.6-8.5-28.8-9.4-2.2-1-6.6-2.4-7.7-2.5-.3 0-1-.3-1.4-.7-.4-.5-1.3-.8-2-.8s-2.3-.4-3.6-.9c-1.3-.5-2.5-.9-2.8-1-1.9-.4-11.1-3.9-11.7-4.4-.3-.4-1.6-.7-2.8-.7-1.1 0-2.5-.4-3-.8-.6-.4-2.8-1.4-5-2.1-2.2-.7-4.9-1.6-6-2.1-2.4-1-13.6-5.1-15-5.5-1.5-.3-4.8-1.6-7-2.6-1.2-.6-2.7-1.1-3.5-1.3-.8-.1-3.1-.9-5-1.8-5-2.2-11.4-4.2-12.2-4-.5.1-.8-.2-.8-.8 0-.5-.8-1-1.8-1s-2.2-.3-2.6-.7c-.4-.5-1.2-.9-1.7-.9-.5-.1-1.1-.3-1.4-.4-.3-.1-.8-.3-1.2-.5-1.2-.3-4.5-1.6-7.8-3-1.6-.7-6.1-2.5-10-4-3.8-1.5-8.9-3.6-11.2-4.6-2.4-1-4.5-1.9-4.7-1.9-.2 0-2.1-.8-4.2-1.7-2.2-.9-4.1-1.7-4.4-1.8-.9-.3-4.4-1.8-9-3.8-2.4-1.1-5-2-5.8-2.1-.7-.1-1.7-.7-2-1.2-.4-.5-1.4-1-2.2-1.2-.8-.1-2.4-.6-3.5-1.1-1.1-.5-3.6-1.6-5.5-2.4-1.9-.9-5.8-2.5-8.5-3.7-5.1-2.2-7.4-3.2-20.8-9.4-4.3-2-8.4-3.6-9.2-3.6-.7 0-1.5-.5-1.7-1.1-.2-.5-1-1.1-1.8-1.3-1.5-.2-8.6-3.5-25.7-11.8-4.5-2.2-8.5-3.9-8.9-3.8-.4.1-1-.2-1.3-.7-.8-1.1-13.4-7.3-14.8-7.3-.6 0-1.6-.7-2.3-1.5-.7-.8-1.6-1.3-2-1-.3.2-1.6-.2-2.6-1-1.9-1.3-28.4-15.2-35.2-18.4-1.7-.8-3.2-1.9-3.2-2.3 0-.4-.9-.8-2-.8s-2-.5-2-1.2c0-.6-.3-.8-.6-.5-.4.4-1.9-.2-3.4-1.3-1.6-1.1-3-2-3.3-2-.4 0-5.5-2.8-22.5-12.2-3-1.6-5.5-2.8-5.7-2.6-.3.4-5.5 9.9-8.1 14.8-1.1 1.9-2.1 3.7-2.4 4-1 1-9 15.3-9 16.1 0 .5-.5.9-1.2.9-.6 0-.8.3-.5.6.4.4-.1 1.9-1.1 3.3s-2.4 3.9-3.2 5.6c-.8 1.6-1.7 3.2-2 3.5-1 .9-10 17.2-10 18.1 0 .5-.3.9-.8.9-.4 0-1.6 2-2.7 4.5s-2.3 4.5-2.7 4.5c-.3 0-1.1 1.3-1.7 3-.5 1.6-1.5 3-2.1 3-.6 0-.9.4-.6.9.3.5-.4 2-1.5 3.5-1.1 1.4-1.7 2.6-1.3 2.6.4 0 0 .8-.8 1.7-.9 1-2.8 4-4.3 6.8-1.4 2.7-3.7 6.8-5.1 9-1.3 2.2-3.2 5.7-4.1 7.7-1 2.1-2.1 3.8-2.5 3.8-.5 0-.8.4-.8.9 0 1.4-18.9 34.3-20.7 36.1-1.4 1.3-1.4 1.3-.5-.5 1-1.9 5.8-18.6 6.8-23.4.3-1.3.9-3.2 1.5-4.3.5-1 .8-1.8.5-1.8-.3 0 0-1.5.6-3.3 1.7-5.4 2.9-10 4.3-16.7.2-.8.4-1.6.5-1.8.2-.1.4-.7.5-1.2.1-.6.4-1.3.5-1.8.1-.4.2-1 .2-1.3-.1-.3.6-2.8 1.4-5.5.9-2.7 1.8-6.3 2.1-7.9.3-1.7.8-3.5 1.2-4 .4-.6.7-1.7.6-2.5-.1-.8.4-3 1.1-4.7.7-1.8 1-3.3.7-3.3-.3 0 0-.7.7-1.5s.9-1.5.5-1.5-.1-.8.6-1.7c1-1.2 1-1.5.1-.9s-1 .2-.2-1.6c.9-2.1 10.4-39.6 11.4-45.1.2-1.2 1.2-5.1 2.1-8.7.9-3.6 1.8-7.4 2-8.5.1-1.1.5-2.7.8-3.5.5-1.4 5.2-21.8 6.2-26.8.2-1.3.7-3.2 1-4.2.6-2 1.3-5 2.1-9 .5-2.6 1.6-7.8 2-9.5.4-1.5.9-3.8 3.8-17 1.5-6.6 2.9-13.1 3.3-14.5.3-1.4.7-3.2.9-4 .5-2.9 1.5-7.5 1.9-9 .8-2.8 1.8-8.5 1.9-10.8.1-1.2.4-2.2.8-2.2s.7-.8.6-1.8c0-.9.3-2.8.6-4.2 1.1-5 1.8-8 1.8-8.7 0-.5.4-1.6 1-2.7.7-1.4.7-1.7-.2-1.1-.9.6-.9.3-.2-1.1.6-1.1 1.2-3.3 1.5-4.9 1-5.5 3.3-16.7 4.1-20 .2-.6.6-3.3 1.1-6 .4-2.8 1-5.4 1.3-5.9.3-.6.7-1.9.8-3 .1-1.2.7-4.6 1.3-7.6 1.8-8.9 2.1-10.3 2.6-13.5.5-2.5 2.2-11.3 3-15 .1-.6.6-3.3 1-6 .5-2.8 1-5.2 1-5.5.1-.3.5-2.3 1-4.5.4-2.2 1-4.9 1.2-6 .9-4.2 1.4-7.1 1.7-10 .2-1.7.7-4.1 1-5.5.4-1.4.9-3.9 1.1-5.5.2-1.7.4-3.1.6-3.3.1-.1.3-1.1.4-2.2.1-1.1.4-2.2.5-2.5.1-.3.4-1.4.5-2.5.1-1.1.3-2.1.4-2.3.2-.2 1.2-7 1.3-9.5.1-.6.4-1.2.7-1.2.4 0 .7-1.5.8-3.3.1-1.7.4-4.3.7-5.7.3-1.4.9-4.5 1.2-7 .3-2.5.8-4.8 1-5.1.1-.3.6-2.8.9-5.5.4-2.7.9-5.8 1.2-6.9.3-1.1.7-3.1.9-4.5.2-2.6.4-3.8 2.9-17.5.8-4.4 1.7-9.6 2-11.5.3-1.9 1-6 1.5-9s1.2-7.1 1.5-9c.4-1.9.8-4.6 1-6 .2-1.4.8-5.4 1.5-9 .7-3.6 1.4-8.1 1.5-10 .2-1.9.4-3.5.5-3.5.1 0 .4-1.4.6-3 .1-1.7.6-4.6 1-6.5.4-1.9.8-4.3.9-5.3.2-.9.3-1.8.4-2 .3-.3 1.2-8.4 1.4-11.5 0-1.2.4-2.2.8-2.2s.6-.8.5-1.7c-.2-.9.1-3.6.5-6 .5-2.4 1.1-6.5 1.4-9.1.4-2.6.9-5.8 1.1-7.2.3-1.4.7-4 1-5.8.7-5.2.8-5.7 1.9-6.4.6-.5.6-.8-.2-.8s-.9-1-.3-3.3c.5-1.7 1.1-5.7 1.5-8.7.4-3 .8-6.4 1-7.5.2-1.1 1.2-8.3 2.4-16 1.2-7.7 2.4-16 2.7-18.5.3-2.5.9-6.4 1.4-8.7.4-2.2.7-5.7.6-7.7-.1-2 .2-3.7.5-3.9.4-.1 1-2.9 1.3-6.2.4-3.3.9-7.4 1.2-9 .9-6.3 1.6-12.1 1.9-15 .2-1.7.4-3 .5-3 .1 0 .3-1.1.5-2.5.3-3.2 1.4-11.5 2.1-16 .7-4.9 1.1-7.7 1.9-14.5.4-3.3.9-7.4 1.2-9 .2-1.7.5-4.6.7-6.5.2-1.9.5-3.5.6-3.5.1 0 .4-1.6.5-3.5.2-1.9.5-5.1.8-7 .3-1.9.8-6.2 1.2-9.5.4-3.3.9-6.9 1.1-8 .2-1 .6-4.9 1-8.5.3-3.6.8-7.2.9-8.1.2-.9.6-4 1-7 .3-3 .8-7.2 1.1-9.4.9-5.9 1.1-8 2.4-19 1.6-14 2.3-20.2 3.5-29.5.2-1.9.7-6.4 1.1-10 .7-7.7 1.2-10.1 1.9-10.8.2-.3 0-1.1-.6-1.9-.6-.7-.7-1.3-.2-1.3.5 0 .9-1 1-2.3.1-3 1.1-13.2 1.3-13.2.1 0 .7-5.8 1.5-15 .2-2.2.4-4 .5-4 .2 0 .5-3.1 1.5-13 .2-2.8.7-7.3 1-10 .3-2.8.7-7.3.9-10 .3-2.8.6-5 .6-5 .1 0 .3-1.8.5-4 .4-4.1 1.1-10.2 2-19.8.4-2.8.8-7.2 1.1-9.7.2-2.5.6-6.5.9-9 .2-2.5.7-7.4 1-11 .3-3.6.8-8.1 1-10 .2-1.9.7-6.4 1-10 .3-3.6.8-7.6 1-9 .2-1.4.6-6.1 1-10.5.3-4.4.8-9.1 1-10.5.2-1.4.6-6 1-10.3.3-4.3.8-9.5 1-11.5.2-2 .6-6.8 1-10.6.3-3.7.7-8.5 1-10.5.2-2 .7-6.7 1-10.6.4-3.8.9-7.3 1.2-7.9.4-.5.1-.6-.7-.1-.9.5-1.1.4-.6-.3.4-.7.9-2.9 1.1-4.9 1.3-12.5 1.6-15.5 2.1-22.3.3-4.1.7-9.4.8-11.6.2-2.3.7-4.8 1.1-5.4.6-.9.4-1.1-.5-.5-.9.6-1.1.4-.5-.5.4-.7.9-3.1 1.1-5.4.1-2.3.5-7 .8-10.6.5-5.7 1.3-15.7 2-25.6.2-1.7.6-3.6 1-4.2.4-.7.2-1.2-.4-1.2-.6 0-.8-.5-.4-1.1.3-.6.9-4.3 1.1-8.3.6-9.4 1.1-15.1 1.2-15.1.2 0 1.3-17.2 1.3-20.5.1-.8.5-2.1 1.1-2.8.6-.8.6-1.2-.2-1.2-.7 0-1-.4-.7-.9.3-.4.8-4.6 1.1-9.2.3-4.6.7-10.9 1-13.9.4-5.4.9-11.6 2-27 .5-7.1.8-10.6 2-29.5.3-4.4.8-10.5 1-13.5.6-8.2 1.6-22 1.9-25.8.1-1.9-.2-3.6-.7-3.9-.4-.3-.4-1 .2-1.6.5-.7 1.2-5.7 1.5-11.2.3-5.5.9-14.5 1.3-20 .3-5.5.6-13.7.7-18.2.1-4.6.3-8.3.7-8.3.3 0 .5-1 .5-2.3.2-8.5 1.5-27 1.9-27.8.4-.5.1-.9-.5-.9s-.8-.5-.3-1.3c.8-1.2 1-3.7 1.6-20.8.3-5.3.8-10.2 1.2-10.9.6-.9.4-1.1-.5-.5-.9.6-1.1.4-.4-.6.4-.8.9-5.5 1.1-10.4.1-5 .3-9 .3-9 .2 0 .4-4.1 1.5-25.5.3-5.8.7-14.6 1-19.5 1.3-24.9 1.6-31.4 1.7-36.1l.2-5.1 4.5.4c2.6.2 7.8.5 11.6.8 3.9.2 9.5.6 12.6.8 3.1.2 6.1.7 6.8 1.1.6.4 1.1.2 1.1-.4 0-.6.4-.9.9-.6 1 .6 7.6 1.3 19.6 2.1 3.9.3 9.7.7 13 .9 3.3.3 9.8.7 14.5 1 8.9.6 17.2 1.2 28 2.1 3.6.3 9.2.7 12.5 1 3.3.3 8.7.7 12 .9 3.3.3 10.1.8 15 1.1 5 .3 11.3.8 14 1 2.8.3 8.6.7 13 1 4.4.3 10.7.7 14 1 3.3.2 10.1.7 15 1 14.2 1 17.7 1.3 18.2 1.8.2.3 1.8.1 3.4-.3 1.6-.5 3.1-.5 3.4 0 .3.5 1.3.9 2.3.8 2.3 0 23.7 1.1 23.7 1.3 0 .2 6.3.7 13.7 1.1 4.3.2 7.8.6 7.8 1s1.1.3 2.4-.2c1.3-.5 2.6-.6 3-.3.5.5 4.6 1 16.1 1.7 3.3.2 6 .5 6 .6 0 .1 16.5 1.1 22.8 1.3 2.6.1 4.7.4 4.7.7 0 .3 2.4.5 5.3.6 4.7 0 10.9.4 32.2 2 3.9.3 8.8.6 11 .8 2.3.1 4.6.5 5.2.9.6.4 1.4.3 1.8-.3.4-.6 1-.8 1.4-.6 1.1.7 15.9 2 34.1 3.1 3.6.2 9.9.6 14 1 4.1.3 10.4.8 14 1 3.6.3 8.8.7 11.5 1 2.8.3 8.6.7 13 1 8 .5 20.3 1.4 28 2 2.2.2 8 .6 12.9.9 8.3.5 13.1.9 29 2.1 3.3.3 6.1.7 6.4 1 .3.2 1.3 0 2.3-.6 1.1-.5 1.9-.6 1.9-.1s1.2.9 2.8.9c3.2.1 19.2 1.2 27.7 1.8 3.3.3 9 .7 12.6.9 3.7.2 7.2.6 7.7 1 .6.3 1.3.2 1.7-.4.4-.6 1.2-.7 2.4-.1 1 .6 2.6 1 3.7.9 2 0 14.3.8 27.4 1.8 4.1.3 9.8.7 12.5.9 2.8.1 5 .4 5 .4 0 .1 4.1.4 9 .7 5 .3 11 .7 13.5.9 10.6.8 23.8 1.7 28.3 1.8 2.6.1 4.7.4 4.7.7 0 .3 2.4.5 5.3.6 2.8 0 9.3.4 14.2.8 5 .3 12.2.8 16 1.1 3.9.3 9.9.7 13.5 1 3.6.3 10.1.7 14.5 1 4.4.2 9.8.7 12 .9 2.2.3 8.5.8 14 1.1 5.5.3 12 .8 14.5 1 2.5.3 8.3.7 13 1 4.7.3 10.8.8 13.5 1 12.3 1.1 23.5 1.8 29.7 1.9 3.8 0 6.8.3 6.8.6s1.9.6 4.3.7c2.3 0 7.6.3 11.7.7 4.1.3 11.6.8 16.5 1.2 5 .4 12 .7 15.7.8 3.8.1 6.8.3 6.8.6s1.7.6 3.8.7c2 0 7.8.3 12.7.7 5 .4 12.2.9 16 1.2 3.9.2 9.5.6 12.5.9 13.2 1 20.9 1.6 27 2 3.6.2 10.6.7 15.5 1.1 5 .3 11.1.7 13.8.8 2.6 0 4.7.3 4.7.6s2.1.5 4.8.6c5.8 0 30 1.7 42.7 2.9 2.8.3 9.3.7 14.5 1 5.2.3 11.5.8 13.9 1 2.5.3 9 .8 14.5 1.1 5.6.3 11.7.7 13.6.9 1.9.2 7.8.7 13 1 5.2.3 11.5.8 14 1 9.7 1 21.8 1.8 28.7 1.9 4 0 7.3.4 7.3.7 0 .3 1.5.6 3.3.6 3.8 0 18.2 1 28.7 1.9 4.1.4 11 .7 15.2.8 4.3.1 7.8.3 7.8.6s3 .7 6.8.8c3.7.2 9.2.5 12.2.7 3 .3 9.1.7 13.5 1.1 4.4.3 10.3.8 13 .9 2.8.2 5 .4 5 .5 0 .1 6.1.5 20.1 1.4 3.4.2 6.7.7 7.3 1 .6.4 1.1.2 1.1-.4 0-.6.5-.8 1.1-.4 1 .6 5 1 18.9 1.7 2.5.2 5.1.6 5.8 1.1.7.4 1.2.2 1.2-.4 0-.6.5-.8 1.1-.4.7.4 3.3.8 5.8 1 15.9 1 24.1 1.6 27.6 1.9 2.2.2 6.3.4 9 .6 2.8.1 5.5.6 6.2 1.1.7.5 1.4.5 1.8-.2.3-.6 1-.8 1.5-.5.4.3 4.5.7 9.1 1 4.6.3 10.7.7 13.4 1 2.8.2 8.5.7 12.8 1 12.7.8 22.9 1.6 28.2 2 2.8.3 8.4.7 12.5 1 4.1.3 11.1.8 15.5 1.1 4.4.3 9.4.7 11 .8l3.1.3.3-6.1c.1-3.3.4-7.7.6-9.6.2-1.9.6-7.6 1-12.5.3-5 .8-11.3 1-14 .2-2.8.6-8.4 1-12.5.3-4.1.8-10.4 1-14 .3-3.6.8-9.4 1-13 1.4-20.9 2.3-34.2 3.1-43.5.2-2.8.6-8.6.9-13 .2-4.4.5-8 .5-8 .1 0 .3-2 .5-4.5s.6-9 1-14.5.8-12.1.9-14.8c0-2.6.3-4.7.6-4.7s.6-2.6.6-5.8c.1-5.4.5-10.2 2-30.2.4-4.7.7-11.1.8-14.2.1-3.2.3-5.8.6-5.8s.5-2.4.6-5.3c.1-2.8.4-8.8.8-13.2 1-12.2 1.9-25.6 1.9-29.8 0-2 .3-3.7.6-3.7s.7-2.8.7-6.3c.1-5.6.9-17.9 1.9-29.7.2-2.5.7-9.2 1-15l.7-10.5-3.9-.1c-5.3-.1-23.9-1.4-28.8-1.9-2.2-.3-7.1-.7-11-.9-3.8-.3-11.3-.8-16.5-1.2-5.2-.4-12.5-.7-16.2-.8-3.8-.1-6.8-.3-6.8-.6s-2.6-.7-5.7-.8c-3.2-.2-8.3-.4-11.3-.7-7.2-.5-22.3-1.5-28.1-1.9-2.5-.2-5.2-.7-5.9-1.1-.9-.6-1.1-.4-.5.5.6.9.4 1.1-.5.5-.8-.5-3.7-1-6.4-1.1-10.9-.6-21.1-1.3-21.1-1.4 0-.2-15.3-1.2-20.2-1.3-2.4-.1-4.3-.4-4.3-.7 0-.3-3.3-.5-7.3-.4-3.9 0-7.6-.2-8.2-.5-.5-.3-1.9-.6-3-.6s-2.6-.4-3.4-.9c-1-.6-1.2-.5-.7.2.4.8-.5 1-3.1.6-3.6-.4-13.3-1.1-24.8-1.8-2.7-.2-5-.5-5-.6 0-.1-3.1-.3-7-.5-3.8-.2-10.1-.6-14-.9-20.7-1.4-24.4-1.7-29-2.1-2.7-.2-8.6-.7-13-1-4.4-.3-10.7-.7-14-1-3.3-.3-9.4-.7-13.5-1-4.1-.3-10.2-.8-13.5-1-3.3-.3-9.3-.7-13.3-1-4.1-.3-10.4-.8-14-1.1-3.7-.2-9.6-.6-13.2-.9-3.6-.2-10.3-.7-15-.9-4.7-.3-8.5-.6-8.5-.7 0-.2-10.7-.9-18.2-1.1-4.6-.2-8.3-.5-8.3-.8 0-.3-2.1-.6-4.7-.6-7.6-.1-18.1-1.1-19.2-1.9-.6-.3-1.1-.1-1.1.5s-.5.8-1.2.4c-.7-.5-4-.9-7.3-1.1-5.9-.2-8.6-.4-25.5-1.9-4.7-.4-10.6-.7-13.2-.8-2.7 0-4.8-.4-4.8-.8 0-.3-1.3-.3-2.9.2-1.6.4-3.2.6-3.5.3-.5-.6-4.3-1-16-1.8-4.5-.3-11.5-.8-15.6-1.1-4.1-.3-10-.7-13-.9-3-.1-5.5-.4-5.5-.5 0-.1-3.3-.3-7.4-.5-4.1-.2-10.4-.6-14-.9-3.6-.3-10-.8-14.1-1.1-4.1-.3-10.2-.7-13.5-1-3.3-.3-9.8-.7-14.5-1-4.7-.3-10.7-.7-13.5-1-2.7-.2-8.6-.7-13-1-4.4-.3-10.7-.8-14-1-3.3-.3-9.8-.7-14.4-1-4.6-.4-10.2-.8-12.5-1-3.6-.4-10.1-.9-27.6-2-3-.2-8-.6-11-.9-3-.4-9.3-.8-14-1.1-8.9-.5-20.7-1.3-29.8-2-2.9-.2-5.8-.7-6.4-1.1-.7-.5-.8-.2-.3.6.6.9.4 1.1-.5.5-.8-.5-3.2-1-5.4-1.1-2.3-.1-8.1-.5-13.1-.9-12-.9-19.4-1.4-29-1.9-4.4-.3-8-.5-8-.6 0-.1-2.2-.4-5-.5-2.7-.2-8.4-.6-12.5-.9-8.3-.7-22-1.6-29-2.1-2.5-.1-4.5-.4-4.5-.4 0-.1-3.4-.4-7.5-.6-4.1-.3-10-.7-13-.9-3-.3-10-.7-15.5-1-5.5-.4-11.8-.8-14-1.1-2.2-.2-8-.7-13-1-4.9-.3-11.2-.7-14-1-2.7-.2-9.5-.7-15-1-5.5-.3-11.1-.8-12.5-1-1.4-.2-7.2-.7-12.8-1-5.7-.3-12-.8-14-1-3.5-.3-16.4-1.3-28.2-2.1-3-.2-8.4-.6-12-.9-26.8-2.1-37.2-2.8-44.7-2.9-3.5-.1-6.3-.3-6.3-.6 0-.5-9.3-1.1-20.7-1.4-3.5 0-6.3-.3-6.3-.6s-2.1-.5-4.7-.5c-2.7 0-5.2-.1-5.6-.3-.5-.3-4.3-.6-8.5-.9-15-.8-16.8-.9-18-1.7-.7-.4-1.2-.3-1.2.2 0 .6-1.4.7-3.2.3-1.8-.4-4.5-.7-6-.6-1.6.1-2.8-.1-2.8-.4 0-.3-3.6-.6-8.1-.6-4.4 0-8.2-.2-8.4-.5-.2-.3-3.1-.5-6.4-.5-3.4.1-6.1-.2-6.1-.5s-2.4-.5-5.3-.6c-5-.1-19.2-1-30.7-1.9-3-.3-8.6-.7-12.5-.9-3.8-.3-9.9-.7-13.5-1-7.7-.6-18.7-1.5-28.5-2.2-8.6-.6-17-1.2-25.5-1.8-3.6-.3-10.3-.8-15-1.1-4.7-.3-10.7-.7-13.5-1-9.7-.8-21.1-1.7-26.5-2-6.2-.3-19.6-1.3-28.5-2.1-3.3-.3-8.5-.7-11.6-.8-3-.2-6.1-.6-6.7-1-.7-.4-1.2-.2-1.2.4 0 .6-.5.8-1.1.4-1.2-.7-4.3-1-19.4-1.9-4.4-.2-8-.5-8-.5 0-.1-2.2-.3-5-.5-2.7-.2-9-.6-14-1-4.9-.3-11.7-.8-15.1-.9-3.3-.2-6.5-.5-7-.7-.5-.3-3-.4-5.6-.4-2.7.1-4.8-.1-4.8-.4 0-.4-3.3-.7-7.3-.8-3.9-.1-8.6-.3-10.3-.4l-3-.2.2-6.1c.2-3.4.5-16.7.9-29.6.7-27 1.1-35.6 2-36.9.3-.5.1-1.2-.5-1.6-.6-.4-.7-1.2-.3-1.8.4-.7.8-4.4.9-8.2.1-3.9.3-7 .4-7 .1 0 .3-4.3.5-9.5s.5-9.5.5-9.5c.1 0 .3-4.3.5-9.7.1-5.3.6-10.1.9-10.7.4-.6.2-1.1-.4-1.1-.6 0-.8-.5-.4-1.1.7-1.2 1-5.7 1.8-25.9.3-6.3.6-11.5.6-11.5.1 0 .8-15.6 1.4-33.3.2-5.6.6-10.5.9-10.9.4-.3.2-1.4-.4-2.4-.5-1.1-.6-1.9-.2-1.9.4 0 .9-4.6.9-10.3.1-5.6.4-17.4.8-26.2.6-17.8 1.7-52.4 2-65.5.1-4.7.5-9.1.9-9.8.5-.6.5-1.2 0-1.2-.4 0-.8-1.6-.8-3.5s.4-3.5.8-3.5c.5 0 .5-.5.1-1.2-.8-1.3-1.2-7.8-.4-7.8.3 0 .6-9.3.7-20.8.4-30.8 1-61.6 1.3-62.7.1-.6.1-1.5 0-2-.6-2.6-.4-12.5.2-12.5.4 0 .4-.9 0-1.9-.4-1.1-.5-5.4-.2-9.6.5-8.2.3-225.5-.3-234.5-.2-3 0-6.2.4-7.1.5-.9.5-1.9.2-2.3-.6-.6-.8-8.7-1.6-65.2-.2-13.3-.7-24.6-1.1-25.2-.3-.6-.2-1.3.4-1.7.7-.4.7-1.2 0-2.6-.8-1.3-.7-1.9 0-1.9s.8-.6.1-1.8c-.7-1.3-.6-2.3.1-3 .8-.8.8-1.2.1-1.2-.9 0-1-2.2-.3-5.5.1-.6.1-1.2 0-1.5-.1-.3-.4-6.4-.6-13.5-.9-38.2-1.2-45.4-1.8-46.4-.4-.6-.3-1.1.2-1.1.6 0 .8-.8.6-1.8-.9-4.3-1-11.3-.2-11.8.4-.3.5-1.1.1-1.7-.4-.7-.8-5.4-.9-10.5 0-5.1-.4-9.5-.7-9.9-.4-.3-.2-1.2.4-2 .6-.7.8-1.3.3-1.3s-.9-5.1-.9-11.3c.1-6.1-.3-12-.8-13.1-.7-1.3-.6-1.6.3-1.1.9.6.9.3.1-1.2-.7-1.4-.7-2.3.1-3.1.7-.7.8-1.2.3-1.2-.6 0-1.1-4.9-1.2-11.3-.1-6.1-.4-17.5-.7-25.2-.8-18.5-1.7-42.5-1.9-50.2-.1-3.5-.6-6.3-1.2-6.3-.7 0-.7-.3 0-.8 1-.7 1.5-9.2.5-9.2-.3 0-.5-3-.6-6.8-.1-6.5-.8-24.8-2-48.2-.3-6.3-.6-14.2-.7-17.5-.1-3.3-.6-6.3-1.2-6.7-.6-.5-.5-.8.3-.8.7 0 1.1-.4.7-1-.3-.5-.8-6-1-12.2-.3-6.2-.7-15.4-1-20.3-.2-5-.7-14.2-1-20.5-.3-6.3-.8-14.9-1.1-19-.3-4.1-.7-11.3-.9-16-.2-4.6-.7-12-.9-16.5-.6-8.7-1.3-19.8-2.1-34.5-.3-5.2-.7-12.7-1-16.5-.3-3.9-.7-11.1-1-16-.3-5-.8-11.9-1-15.5-.3-3.6-.7-11.5-1-17.5-.2-6.1-.5-11-.6-11-.2 0-.5-4.5-1.3-16.5-.3-5.2-.8-13.1-1.1-17.5-.3-4.4-.7-10.8-.9-14.2-.3-3.4-.8-6.8-1.2-7.4-.5-.8-.3-.9.6-.4.9.6 1.1.4.5-.4-.4-.7-.9-3.5-1.2-6.1l-.4-4.8 16.8-.1c9.2-.1 44.5-.3 78.3-.6 71.9-.5 158.6-1.3 213-2 110.5-1.4 205-2.9 264-4.1 15.1-.3 35.8-.7 46-.9 10.2-.1 19-.4 19.5-.5.6-.1 1.5-.1 2 0 2.1.4 9.7.1 10.2-.4.3-.3 1.4-.1 2.4.5 1.1.5 1.9.6 1.9.2 0-1.2 7.4-1 8.2.2.5.7.8.7.8 0s3.1-1.1 7.8-1.2c4.2 0 20.5-.4 36.2-.7 15.7-.4 37.3-.9 48-1.1 10.7-.2 19.5-.5 19.5-.5 0-.1 6.8-.3 15-.4 8.3-.2 15.5-.4 16-.6.6-.1 1.3-.1 1.8 0 .9.2 8.6.2 9 0 .1-.1 6.3-.4 13.7-.5 7.4-.2 13.5-.4 13.5-.5 0 0 6.6-.2 14.7-.4 8.1-.1 15-.5 15.4-.8.3-.4 1.7-.3 3 .2 1.6.6 2.4.6 2.4-.1 0-.6.7-.6 2 .1 1.5.8 2 .8 2-.1 0-.8.4-.8 1.5.1.8.7 1.5.9 1.5.4s4.4-.9 9.8-.8c5.3 0 10.3-.4 11-.9.8-.6 1.2-.6 1.2.1 0 .6.6.9 1.4.6.7-.3 6.9-.6 13.8-.8 6.8-.1 12.9-.6 13.6-1 .7-.4 1.2-.3 1.2.3 0 .7.8.7 2.6.1 1.6-.7 2.3-.7 1.9 0-.4.7.3.7 1.9 0 1.8-.6 2.6-.6 2.6.1 0 .6.6.7 1.2.3.7-.5 5.3-.9 10.3-1 10.5-.3 35.9-1.1 60-2 9.4-.3 19.6-.7 22.7-.8 3.1 0 6-.4 6.3-.8.4-.4 1.5-.3 2.5.2s2 .7 2.2.4c.3-.3 7.7-.7 16.4-1 8.8-.2 20-.6 24.9-.9 5-.2 16.2-.7 25-1 8.8-.4 19.2-.8 23-1 3.9-.2 14-.6 22.5-1 8.5-.3 18.7-.7 22.5-1 3.9-.2 13.8-.6 22-1 8.3-.4 17.9-.8 21.5-1.1 3.6-.2 12.1-.6 19-.9 6.9-.3 15.9-.8 20-1 7.8-.5 24.4-1.3 39-2 4.7-.3 12.3-.7 17-1 4.7-.3 12.8-.7 18-1 5.2-.2 9.5-.5 9.5-.5 0-.1 3.6-.3 8-.6 18.7-1 40.2-2.2 51-2.9 12.8-.9 24.6-1.6 29.5-1.8 2.5-.1 5.1-.6 5.8-1 .6-.5 1.2-.4 1.2.2 0 .6.9.8 2.3.3 1.2-.4 4.2-.7 6.7-.7s4.8-.5 5.2-1c.5-.6.8-.6.8.2s.9.9 2.8.4c1.5-.4 5.1-.7 8-.6 2.8 0 5.2-.2 5.2-.5s3.3-.5 7.3-.5c3.9 0 7.6-.2 8.2-.4.5-.3 3.7-.6 7-.7 6.2-.3 19-1.1 28.5-1.9 3-.3 9.3-.8 14-1.1 4.7-.3 9.9-.8 11.5-1 1.7-.1 7.3-.6 12.5-.9 5.2-.3 11.1-.7 13-.9 1.9-.3 7.6-.7 12.5-1.1 5-.4 10.6-.8 12.5-1 1.9-.2 7.1-.6 11.5-1 7.5-.5 14.4-1.1 24-2.1 2.2-.2 7.6-.6 12-.9 4.4-.3 9.1-.7 10.3-1 3.5-.6 19-1.9 24.9-1.9 2.9-.1 5.3-.4 5.3-.7 0-.5 1.5-.6 12-1.1 1.9-.1 3.8-.7 4.2-1.3.5-.6.8-.5.8.3 0 .7.5 1 1.1.7 1.1-.8 9.2-1.7 15.7-1.9 2.3-.1 4.2-.3 4.2-.6s2.5-.5 5.6-.5c3 .1 5.7-.2 6-.6.2-.3 2.2-.6 4.4-.5 2.2.1 4-.1 4-.4 0-.4 1.9-.7 4.3-.7 2.3-.1 6.7-.4 9.7-.7 3-.4 7.5-.9 10-1.1 2.5-.2 4.5-.5 4.5-.5 0-.1 1.6-.3 3.5-.5 4.2-.4 11.6-1.2 19-2 3-.4 6.6-.8 8-1.1 1.4-.3 4.8-.7 7.5-.9 7.6-.6 14.7-1.4 17.5-2 1.4-.2 5-.7 8-1 3-.3 6.4-.7 7.5-.9 1.1-.2 4.9-.7 8.5-1.1 3.6-.3 7.9-.9 9.5-1.2 1.7-.2 4.6-.6 6.5-.8 1.9-.2 5.3-.7 7.5-1 2.2-.4 5.4-.8 7-.9 1.7-.2 5-.7 7.5-1.1 2.5-.4 6.3-.9 8.5-1.1 9.5-1.1 17-2.2 20.5-2.9 2.3-.5 9.8-1.5 14.3-1.8.9-.1 1.7-.4 1.7-.8s.9-.5 1.9-.2c1 .3 2.8 0 4-.6 1.6-.9 2.1-.9 2.1 0 0 .8.4.8 1.3.2.6-.6 1.9-1.1 2.7-1.1.8-.1 3.5-.4 6-.7 2.5-.4 5.6-.8 7-1 1.4-.2 2.6-.4 2.8-.6.1-.1 1.1-.3 2.2-.4 1.1-.1 2.1-.3 2.3-.4.1-.1 1.8-.4 3.7-.6 4.6-.6 12.2-1.7 13.8-2.2.6-.1 2-.5 3-.7.9-.2 1.6-.8 1.5-1.2-.2-1.1-1.5-9.3-1.8-11.9-.5-2.9-1.4-8.6-2.1-11.7-.3-1.5-.7-3.9-.9-5.5-.2-1.5-.6-3.7-.8-4.8-.6-2.5-1.8-9.7-2.2-12.8-.1-1.2-.5-3.6-.9-5.2-.3-1.7-1.2-7.1-2-12-.9-5-1.7-10.1-2-11.5-.5-2.7-2.5-15.3-2.9-18.5-.1-1.1-.6-2.6-1-3.3-.5-.6-.6-1.2-.4-1.2.2 0 0-2.4-.5-5.3-1.4-8.1-2.1-13-2.1-15.5-.1-1.2-.4-2.2-.7-2.2-.3 0-.7-1.5-.9-3.3-.3-4.1-.9-8.2-1.1-8.2-.2 0-1.2-6.8-1.3-9.3-.1-1.2-.4-2.2-.7-2.2-.3 0-.6-.8-.6-1.8-.1-2.5-1.2-10.3-2-13.2-.3-1.4-.6-3.5-.5-4.7 0-1.2-.4-2.5-.9-2.8-.6-.4-.8-1-.5-1.5.2-.4 0-3.3-.6-6.3-.5-3.1-1.2-7.1-1.5-8.9-.5-3.6-.9-5.7-1.7-10.3-.6-2.9-3.4-19.4-4.2-24.5-.2-1.4-1.3-7.9-2.5-14.4-1.1-6.6-1.8-12.1-1.5-12.4.2-.3 0-1.3-.6-2.4-.6-1-1.2-3.8-1.5-6.1-.8-7.1-1.2-10.2-1.4-10.2-.1 0-.4-1.4-.6-3-.2-1.7-.9-4.9-1.4-7.2-.6-2.3-1-4.6-.9-5 .1-.5 0-1-.1-1.3-.1-.3-.3-1.9-.5-3.5-.1-1.7-.3-3-.5-3-.1 0-.4-1.4-.6-3-.8-6.6-1.2-9-1.4-9-.2 0-.9-4.9-1.3-8.5-.2-1.4-.5-3-.8-3.5-.3-.6-.7-2.8-.8-5-.2-2.2-.7-4.5-1.2-5.1-.5-.6-.6-1.4-.3-1.7.3-.3-.1-4.1-.9-8.4-.9-4.3-1.9-9.9-2.2-12.5-.7-4.5-.9-4.7-3.7-4.5-1.6.1-3.1.3-3.2.5z"/></svg>